<?xml version="1.0" encoding="UTF-8"?>
<svg id="Capa_1" data-name="Capa 1" xmlns="http://www.w3.org/2000/svg" xmlns:xlink="http://www.w3.org/1999/xlink" viewBox="0 0 2593 456">
  <defs>
    <style>
      .cls-1, .cls-2, .cls-3, .cls-4, .cls-5, .cls-6, .cls-7 {
        stroke-width: 0px;
      }

      .cls-1, .cls-3, .cls-7 {
        fill-rule: evenodd;
      }

      .cls-1, .cls-6 {
        fill: #fff;
      }

      .cls-2 {
        filter: url(#drop-shadow-1);
      }

      .cls-2, .cls-7 {
        fill: #437239;
      }

      .cls-3, .cls-5 {
        fill: #d1ae6d;
      }

      .cls-8 {
        font-family: CenturyGothic-Bold, 'Century Gothic';
        font-size: 33px;
        font-weight: 700;
      }

      .cls-8, .cls-4 {
        fill: #084a00;
      }
    </style>
    <filter id="drop-shadow-1" filterUnits="userSpaceOnUse">
      <feOffset dx="7" dy="7"/>
      <feGaussianBlur result="blur" stdDeviation="5"/>
      <feFlood flood-color="#1d1d1b" flood-opacity=".33"/>
      <feComposite in2="blur" operator="in"/>
      <feComposite in="SourceGraphic"/>
    </filter>
  </defs>
  <rect class="cls-4" y="155" width="2593" height="301"/>
  <path class="cls-7" d="M479.11,117.52l6.26,2.97c-.96,5.23-2.55,9.11-4.79,11.66-2.23,2.53-5.06,3.81-8.5,3.81-4.25,0-7.74-2.18-10.47-6.52-2.73-4.35-4.11-10.3-4.11-17.83,0-7.98,1.38-14.17,4.13-18.59,2.75-4.41,6.36-6.62,10.85-6.62,3.91,0,7.09,1.73,9.53,5.2,1.46,2.04,2.55,4.99,3.28,8.83l-6.4,2.29c-.37-2.49-1.16-4.45-2.37-5.89-1.2-1.44-2.66-2.15-4.37-2.15-2.37,0-4.3,1.27-5.77,3.83-1.47,2.54-2.21,6.67-2.21,12.38,0,6.06.72,10.38,2.18,12.94,1.45,2.58,3.35,3.86,5.67,3.86,1.72,0,3.2-.81,4.43-2.45,1.24-1.63,2.12-4.21,2.67-7.71M490.92,135.13v-47.92h23.72v8.11h-17.26v10.62h16.06v8.07h-16.06v13.04h17.87v8.08h-24.33ZM520.79,135.13v-47.92h6.29l13.1,32v-32h6.01v47.92h-6.49l-12.9-31.25v31.25h-6.01ZM560.22,135.13v-39.81h-9.49v-8.11h25.43v8.11h-9.47v39.81h-6.47ZM580.34,135.13v-47.92h13.6c3.42,0,5.9.43,7.45,1.29,1.55.86,2.8,2.39,3.73,4.59.93,2.21,1.39,4.72,1.39,7.55,0,3.59-.71,6.57-2.12,8.92-1.41,2.33-3.52,3.81-6.33,4.42,1.4,1.23,2.56,2.57,3.47,4.03.91,1.46,2.13,4.05,3.67,7.78l3.91,9.35h-7.73l-4.67-10.43c-1.66-3.73-2.79-6.07-3.4-7.04-.61-.97-1.26-1.63-1.95-2-.68-.36-1.77-.54-3.26-.54h-1.3v20h-6.47ZM586.81,107.47h4.78c3.1,0,5.04-.19,5.81-.58.77-.39,1.37-1.07,1.81-2.03.43-.96.66-2.15.66-3.59,0-1.62-.29-2.91-.86-3.9-.57-.99-1.38-1.62-2.44-1.89-.52-.1-2.09-.16-4.71-.16h-5.04v12.15ZM611.3,111.47c0-4.89.48-8.98,1.46-12.29.73-2.43,1.72-4.63,2.98-6.57,1.26-1.93,2.64-3.37,4.14-4.31,1.99-1.27,4.29-1.9,6.9-1.9,4.72,0,8.49,2.19,11.32,6.57,2.83,4.37,4.25,10.47,4.25,18.26s-1.41,13.79-4.22,18.16c-2.81,4.36-6.56,6.55-11.26,6.55s-8.55-2.18-11.35-6.52c-2.81-4.35-4.21-10.34-4.21-17.96M617.95,111.15c0,5.42.84,9.54,2.51,12.34,1.68,2.8,3.8,4.2,6.38,4.2s4.69-1.38,6.34-4.17c1.65-2.78,2.47-6.94,2.47-12.5s-.81-9.58-2.41-12.29c-1.61-2.7-3.75-4.05-6.41-4.05s-4.81,1.37-6.44,4.1c-1.62,2.73-2.44,6.85-2.44,12.37M671.34,87.22h6.44v30.33c0,3.96-.24,7.02-.7,9.15-.62,2.79-1.76,5.03-3.41,6.72-1.65,1.69-3.81,2.53-6.5,2.53-3.16,0-5.59-1.32-7.29-3.97-1.7-2.64-2.56-6.53-2.57-11.65l6.09-1.05c.08,2.74.34,4.69.8,5.82.7,1.72,1.77,2.58,3.19,2.58s2.46-.61,3.05-1.85c.6-1.23.89-3.78.89-7.66v-30.95ZM684.62,87.22h6.46v25.95c0,4.11.08,6.79.24,8.01.28,1.96.94,3.54,1.97,4.72,1.04,1.19,2.47,1.79,4.27,1.79s3.22-.56,4.15-1.69c.93-1.11,1.49-2.5,1.68-4.13.19-1.64.28-4.35.28-8.14v-26.51h6.46v25.17c0,5.76-.17,9.82-.52,12.19-.35,2.38-.99,4.37-1.93,6.02-.94,1.63-2.2,2.93-3.76,3.9-1.57.97-3.63,1.45-6.16,1.45-3.05,0-5.37-.53-6.95-1.58-1.58-1.06-2.82-2.43-3.74-4.12-.92-1.68-1.52-3.46-1.81-5.31-.43-2.74-.63-6.8-.63-12.16v-25.56ZM716.96,135.13v-47.92h13.6c3.42,0,5.9.43,7.45,1.29,1.55.86,2.8,2.39,3.73,4.59.93,2.21,1.39,4.72,1.39,7.55,0,3.59-.71,6.57-2.12,8.92-1.41,2.33-3.52,3.81-6.33,4.42,1.4,1.23,2.56,2.57,3.47,4.03.91,1.46,2.13,4.05,3.67,7.78l3.91,9.35h-7.72l-4.67-10.43c-1.66-3.73-2.79-6.07-3.4-7.04-.61-.97-1.26-1.63-1.95-2-.68-.36-1.77-.54-3.25-.54h-1.31v20h-6.47ZM723.43,107.47h4.78c3.1,0,5.04-.19,5.81-.58.77-.39,1.37-1.07,1.81-2.03.43-.96.65-2.15.65-3.59,0-1.62-.29-2.91-.86-3.9-.57-.99-1.38-1.62-2.43-1.89-.52-.1-2.09-.16-4.72-.16h-5.04v12.15ZM749.03,87.22h6.46v47.92h-6.46v-47.92ZM761.63,87.22h11.81c2.66,0,4.68.3,6.09.91,1.88.83,3.49,2.3,4.82,4.42,1.34,2.11,2.36,4.7,3.06,7.75.69,3.07,1.04,6.84,1.04,11.33,0,3.94-.33,7.34-.99,10.2-.8,3.48-1.94,6.3-3.43,8.46-1.12,1.64-2.63,2.91-4.54,3.83-1.42.68-3.33,1.01-5.72,1.01h-12.15v-47.92ZM768.09,95.32v31.73h4.82c1.8,0,3.1-.15,3.91-.46,1.04-.39,1.91-1.05,2.61-1.98.69-.94,1.25-2.49,1.69-4.63.43-2.14.65-5.08.65-8.78s-.22-6.54-.65-8.52c-.44-1.99-1.05-3.54-1.83-4.64-.79-1.11-1.79-1.86-2.99-2.25-.9-.31-2.67-.46-5.31-.46h-2.9ZM793.73,87.22h6.46v47.92h-6.46v-47.92ZM826.83,117.52l6.26,2.97c-.96,5.23-2.55,9.11-4.79,11.66-2.23,2.53-5.07,3.81-8.5,3.81-4.25,0-7.74-2.18-10.47-6.52-2.73-4.35-4.11-10.3-4.11-17.83,0-7.98,1.38-14.17,4.13-18.59,2.75-4.41,6.36-6.62,10.85-6.62,3.91,0,7.09,1.73,9.54,5.2,1.46,2.04,2.55,4.99,3.28,8.83l-6.4,2.29c-.38-2.49-1.16-4.45-2.37-5.89-1.2-1.44-2.66-2.15-4.38-2.15-2.37,0-4.3,1.27-5.77,3.83-1.47,2.54-2.21,6.67-2.21,12.38,0,6.06.72,10.38,2.18,12.94,1.45,2.58,3.35,3.86,5.67,3.86,1.72,0,3.19-.81,4.43-2.45,1.24-1.63,2.13-4.21,2.67-7.71M837.33,111.47c0-4.89.48-8.98,1.46-12.29.73-2.43,1.72-4.63,2.98-6.57,1.26-1.93,2.64-3.37,4.14-4.31,1.99-1.27,4.29-1.9,6.9-1.9,4.72,0,8.49,2.19,11.32,6.57,2.83,4.37,4.25,10.47,4.25,18.26s-1.41,13.79-4.22,18.16c-2.81,4.36-6.57,6.55-11.26,6.55s-8.54-2.18-11.35-6.52c-2.81-4.35-4.21-10.34-4.21-17.96M843.98,111.15c0,5.42.84,9.54,2.51,12.34,1.68,2.8,3.8,4.2,6.38,4.2s4.69-1.38,6.34-4.17c1.65-2.78,2.47-6.94,2.47-12.5s-.81-9.58-2.41-12.29c-1.61-2.7-3.75-4.05-6.41-4.05s-4.81,1.37-6.44,4.1c-1.62,2.73-2.44,6.85-2.44,12.37M885.63,87.22h6.46v47.92h-6.46v-47.92ZM898.31,135.13v-47.92h6.29l13.1,32v-32h6.01v47.92h-6.49l-12.89-31.25v31.25h-6.01ZM937.73,135.13v-39.81h-9.49v-8.11h25.43v8.11h-9.47v39.81h-6.47ZM957.84,135.13v-47.92h23.72v8.11h-17.27v10.62h16.07v8.07h-16.07v13.04h17.88v8.08h-24.33ZM987.67,135.13v-47.92h13.61c3.42,0,5.9.43,7.45,1.29,1.55.86,2.8,2.39,3.73,4.59.93,2.21,1.39,4.72,1.39,7.55,0,3.59-.71,6.57-2.12,8.92-1.41,2.33-3.52,3.81-6.33,4.42,1.4,1.23,2.56,2.57,3.47,4.03.91,1.46,2.13,4.05,3.67,7.78l3.91,9.35h-7.73l-4.67-10.43c-1.66-3.73-2.79-6.07-3.4-7.04-.61-.97-1.26-1.63-1.95-2-.68-.36-1.77-.54-3.26-.54h-1.3v20h-6.47ZM994.14,107.47h4.78c3.1,0,5.04-.19,5.81-.58.77-.39,1.37-1.07,1.81-2.03.43-.96.66-2.15.66-3.59,0-1.62-.29-2.91-.86-3.9-.57-.99-1.38-1.62-2.44-1.89-.52-.1-2.09-.16-4.71-.16h-5.04v12.15ZM1020,135.13v-47.92h6.29l13.1,32v-32h6.01v47.92h-6.49l-12.9-31.25v31.25h-6ZM1081.08,135.13h-7.03l-2.8-10.89h-12.79l-2.64,10.89h-6.85l12.46-47.92h6.83l12.82,47.92ZM1069.18,116.18l-4.41-17.78-4.32,17.78h8.73ZM1104.98,117.52l6.26,2.97c-.96,5.23-2.55,9.11-4.79,11.66-2.23,2.53-5.07,3.81-8.5,3.81-4.25,0-7.74-2.18-10.48-6.52-2.73-4.35-4.11-10.3-4.11-17.83,0-7.98,1.38-14.17,4.13-18.59,2.75-4.41,6.36-6.62,10.85-6.62,3.91,0,7.09,1.73,9.54,5.2,1.46,2.04,2.55,4.99,3.28,8.83l-6.4,2.29c-.37-2.49-1.16-4.45-2.37-5.89-1.2-1.44-2.66-2.15-4.37-2.15-2.37,0-4.3,1.27-5.77,3.83-1.48,2.54-2.21,6.67-2.21,12.38,0,6.06.72,10.38,2.18,12.94,1.45,2.58,3.35,3.86,5.67,3.86,1.72,0,3.2-.81,4.43-2.45,1.24-1.63,2.12-4.21,2.67-7.71M1116.59,87.22h6.46v47.92h-6.46v-47.92ZM1127.9,111.47c0-4.89.48-8.98,1.46-12.29.73-2.43,1.72-4.63,2.98-6.57,1.26-1.93,2.64-3.37,4.13-4.31,2-1.27,4.29-1.9,6.9-1.9,4.71,0,8.49,2.19,11.32,6.57,2.83,4.37,4.25,10.47,4.25,18.26s-1.41,13.79-4.22,18.16c-2.81,4.36-6.57,6.55-11.26,6.55s-8.54-2.18-11.35-6.52c-2.81-4.35-4.21-10.34-4.21-17.96M1134.55,111.15c0,5.42.84,9.54,2.51,12.34,1.68,2.8,3.8,4.2,6.38,4.2s4.69-1.38,6.34-4.17c1.65-2.78,2.47-6.94,2.47-12.5s-.8-9.58-2.41-12.29c-1.61-2.7-3.75-4.05-6.41-4.05s-4.81,1.37-6.45,4.1c-1.62,2.73-2.44,6.85-2.44,12.37M1164.04,135.13v-47.92h6.29l13.1,32v-32h6v47.92h-6.49l-12.9-31.25v31.25h-6.01ZM1225.12,135.13h-7.04l-2.79-10.89h-12.79l-2.64,10.89h-6.86l12.46-47.92h6.83l12.82,47.92ZM1213.22,116.18l-4.41-17.78-4.32,17.78h8.73ZM1228.72,135.13v-47.53h6.46v39.45h16.06v8.08h-22.52Z"/>
  <path class="cls-3" d="M457.49,243.21h24.55v-2.95c-7.24,0-7.66-.66-7.66-6.11v-15.1h5.49c9.9,0,15.06-1.47,18.89-4.13,3.83-2.65,5.66-6.63,5.66-11.71s-2.25-8.84-5.82-11.35c-3.66-2.43-8.65-3.61-17.64-3.61h-23.47v3.02c6.16,0,6.74.59,6.74,6.04v36.84c0,5.38-.58,6.11-6.74,6.11v2.95ZM474.39,215.37v-19.23c0-3.54.25-4.27,2-4.27h3.58c4.91,0,13.98.51,13.98,11.57,0,7.74-3.83,11.94-14.06,11.94h-5.49ZM510.25,188.25v3.02c6.16,0,6.74.59,6.74,6.04v36.76c0,5.45-.58,6.19-6.74,6.19v2.95h23.13v-2.95c-5.83,0-6.24-.52-6.24-6.11v-15.91h5.83l15.15,24.98h13.9v-2.95c-3.41,0-4.83-.59-7.91-5.23l-11.57-18.05c9.24-1.55,14.23-7.52,14.23-14.29,0-5.01-2.25-8.47-5.99-10.83-4.24-2.73-9.32-3.61-17.31-3.61h-23.22ZM533.47,191.86c4.41,0,7.24.96,9.32,2.65,2.33,1.99,3.41,4.86,3.41,8.18,0,9.36-6.08,11.86-14.23,11.86h-4.83v-18.05c0-3.9.17-4.64,2.16-4.64h4.16ZM592.55,244.33c20.8,0,26.63-14.01,26.63-28.6,0-13.55-5.32-28.58-26.63-28.58-19.55,0-26.46,13.04-26.46,28.58,0,16.73,7.41,28.6,26.46,28.6M592.55,190.54c14.15,0,15.89,14.15,15.89,25.19,0,8.7-1.58,15.77-4.83,20.19-2.58,3.02-6.57,4.94-11.15,4.94-14.15,0-15.81-15.47-15.81-25.12,0-10.68,1.83-16.87,4.91-20.48,3.91-4.35,8.57-4.71,10.98-4.71M661.53,192.09c4.91,0,5.74.29,7.57,9.43h4.08l-2-13.26h-45.6l-2,13.26h4.16c1.75-9.06,2.5-9.43,7.49-9.43h8.07v42.07c0,5.45-.42,6.11-7.66,6.11v2.95h25.55v-2.95c-7.32,0-7.74-.66-7.74-6.11v-42.07h8.07ZM720.87,230.54h-4.33c-2.16,8.32-3.08,8.99-7.9,8.99h-12.48c-1.66,0-2.33-.29-2.33-3.31v-19.67h9.07c3.74,0,4.41.52,4.41,7.66h4.08v-18.86h-4.08c0,6.63-.75,7.51-4.49,7.51h-8.99v-17.53c0-2.87.25-3.46,3-3.46h9.65c4.66,0,5.57.44,7.74,8.62h4.33l-2.66-12.23h-38.94v3.02c6.07,0,6.74.59,6.74,6.04v36.84c0,5.38-.66,6.11-6.74,6.11v2.95h41.11l2.83-12.67ZM769.55,202.84c-.92-4.35-1.66-8.91-2.16-13.11-5.91-2.14-10.74-2.58-14.31-2.58-16.89,0-26.79,9.94-26.79,28.22s8.9,28.96,25.13,28.96c7.41,0,16.23-3.11,19.97-14.97l-4.16-.88c-1.75,5.16-5.74,11.71-14.15,11.71s-16.14-7.07-16.14-25.42c0-9.21,2.33-24.24,16.56-24.24,8.9,0,10.07,4.86,11.82,13.04l4.24-.74ZM821.39,202.84c-.91-4.35-1.66-8.91-2.16-13.11-5.91-2.14-10.73-2.58-14.31-2.58-16.89,0-26.79,9.94-26.79,28.22s8.9,28.96,25.13,28.96c7.41,0,16.23-3.11,19.97-14.97l-4.16-.88c-1.75,5.16-5.74,11.71-14.15,11.71s-16.14-7.07-16.14-25.42c0-9.21,2.33-24.24,16.56-24.24,8.9,0,10.07,4.86,11.82,13.04l4.24-.74ZM828.96,243.21h24.46v-2.95c-6.58,0-7.16-.74-7.16-6.11v-36.84c0-5.45.58-6.04,7.16-6.04v-3.02h-24.38v3.02c6.57,0,7.07.59,7.07,6.04v36.84c0,5.38-.5,6.11-7.15,6.11v2.95ZM880.72,182.29l1.66,2.94,18.72-6.63-3.16-5.9-17.22,9.58ZM886.13,244.33c20.8,0,26.63-14.01,26.63-28.6,0-13.55-5.33-28.58-26.63-28.58-19.55,0-26.46,13.04-26.46,28.58,0,16.73,7.41,28.6,26.46,28.6M886.13,190.54c14.15,0,15.89,14.15,15.89,25.19,0,8.7-1.58,15.77-4.83,20.19-2.58,3.02-6.57,4.94-11.15,4.94-14.15,0-15.81-15.47-15.81-25.12,0-10.68,1.83-16.87,4.91-20.48,3.91-4.35,8.57-4.71,10.98-4.71M919,188.25v3.02c5.91,0,6.49.44,6.49,5.97v36.91c0,5.45-.67,6.11-6.41,6.11v2.95h17.39v-2.95c-5.74,0-6.32-.66-6.32-6.11v-37.35h.17l29.62,47.16h7.16v-46.65c0-5.45.75-6.04,6.16-6.04v-3.02h-17.48v3.02c5.83,0,6.66.59,6.66,6.04v34.48h-.17l-27.21-43.54h-16.06ZM1040.91,229.88c-2.33,8.91-3.16,9.65-8.24,9.65h-11.9c-2.16,0-2.75-.29-2.75-3.46v-38.6c0-5.67.42-6.19,6.82-6.19v-3.02h-23.71v3.02c6.07,0,6.74.59,6.74,6.04v36.76c0,5.45-.66,6.19-6.74,6.19v2.95h41.27l2.91-13.34h-4.41ZM1093.5,230.54h-4.33c-2.16,8.32-3.08,8.99-7.91,8.99h-12.48c-1.67,0-2.33-.29-2.33-3.31v-19.67h9.07c3.74,0,4.41.52,4.41,7.66h4.08v-18.86h-4.08c0,6.63-.75,7.51-4.49,7.51h-8.99v-17.53c0-2.87.25-3.46,3-3.46h9.65c4.66,0,5.58.44,7.74,8.62h4.33l-2.66-12.23h-38.95v3.02c6.08,0,6.74.59,6.74,6.04v36.84c0,5.38-.66,6.11-6.74,6.11v2.95h41.11l2.83-12.67ZM1142.35,202.69c-.83-4.42-1.58-8.62-2-12.89-4.24-1.55-8.74-2.65-13.56-2.65-18.56,0-27.87,12.38-27.87,28.51s8.07,28.67,25.54,28.67c7.57,0,14.48-2.81,18.89-6.57v-9.87c0-3.46.42-3.76,4.83-3.76v-3.02h-20.14v3.02c5.66,0,6.16.52,6.16,4.79v8.62c-2.08,1.55-4.91,2.95-8.9,2.95-10.57,0-15.73-11.86-15.73-25.34,0-15.47,6.99-24.61,16.73-24.61,8.74,0,10.15,4.49,11.82,12.82l4.24-.66ZM1187.62,235.4c.42,1.18.67,2.14.67,2.87,0,1.4-1.08,1.99-4.33,1.99v2.95h19.55v-2.95c-2.91,0-3.91-.81-5.57-5.23l-18.47-47.89h-5.99l-16.89,48.92c-1.25,3.39-2.33,4.2-5.16,4.2v2.95h14.06v-2.95c-3.08,0-4.24-.37-4.24-1.99,0-.81.33-2.06.83-3.68l2.58-8.32h19.72l3.25,9.14ZM1166.06,222.59l7.91-24.16h.25l8.82,24.16h-16.98ZM1247.03,229.88c-2.33,8.91-3.16,9.65-8.24,9.65h-11.9c-2.16,0-2.75-.29-2.75-3.46v-38.6c0-5.67.42-6.19,6.82-6.19v-3.02h-23.71v3.02c6.07,0,6.74.59,6.74,6.04v36.76c0,5.45-.67,6.19-6.74,6.19v2.95h41.27l2.91-13.34h-4.41Z"/>
  <path class="cls-3" d="M457.49,269.3l3.67-.28c.17,1.3.58,2.36,1.21,3.2.64.83,1.62,1.51,2.96,2.02,1.34.51,2.84.77,4.51.77,1.49,0,2.79-.19,3.93-.58,1.14-.39,1.99-.93,2.54-1.6.55-.68.84-1.42.84-2.22s-.27-1.52-.81-2.13c-.53-.61-1.42-1.12-2.64-1.53-.79-.27-2.53-.69-5.24-1.27-2.7-.57-4.6-1.11-5.68-1.62-1.4-.65-2.45-1.46-3.14-2.42-.68-.96-1.03-2.04-1.03-3.23,0-1.3.42-2.53,1.26-3.67.84-1.14,2.08-2.01,3.69-2.6,1.62-.59,3.42-.88,5.4-.88,2.18,0,4.1.31,5.78.93,1.66.62,2.94,1.53,3.84,2.73.89,1.2,1.38,2.57,1.45,4.09l-3.73.25c-.2-1.64-.88-2.88-2.04-3.72-1.16-.84-2.86-1.26-5.12-1.26s-4.07.38-5.15,1.14c-1.08.76-1.61,1.68-1.61,2.75,0,.94.38,1.7,1.14,2.3.75.6,2.71,1.22,5.87,1.85,3.16.63,5.34,1.18,6.52,1.66,1.71.7,2.98,1.58,3.79,2.65.82,1.07,1.22,2.3,1.22,3.69s-.45,2.68-1.34,3.9c-.9,1.22-2.18,2.17-3.86,2.85-1.68.68-3.57,1.01-5.66,1.01-2.67,0-4.9-.34-6.69-1.03-1.8-.68-3.21-1.71-4.24-3.09-1.02-1.37-1.56-2.93-1.61-4.67M500.35,271.59l3.73.4c-.59,1.93-1.68,3.42-3.27,4.48-1.6,1.06-3.63,1.59-6.1,1.59-3.12,0-5.59-.85-7.41-2.54-1.83-1.69-2.74-4.07-2.74-7.13s.92-5.62,2.77-7.37c1.85-1.75,4.24-2.62,7.18-2.62s5.18.86,6.98,2.57c1.81,1.71,2.71,4.12,2.71,7.22,0,.19,0,.48-.02.85h-15.89c.13,2.07.79,3.65,1.98,4.74,1.19,1.1,2.67,1.65,4.45,1.65,1.32,0,2.45-.31,3.39-.92.94-.61,1.68-1.59,2.23-2.94M488.49,266.43h11.9c-.16-1.58-.62-2.77-1.36-3.55-1.15-1.23-2.64-1.84-4.47-1.84-1.66,0-3.05.49-4.18,1.47-1.13.98-1.75,2.29-1.88,3.93M508.58,277.64v-18.8h3.24v2.85c.83-1.33,1.6-2.21,2.3-2.64.7-.42,1.47-.64,2.32-.64,1.22,0,2.45.34,3.71,1.03l-1.25,2.96c-.88-.47-1.76-.7-2.64-.7-.79,0-1.5.21-2.13.63-.63.42-1.08,1-1.34,1.75-.4,1.13-.6,2.37-.6,3.72v9.85h-3.61ZM528.23,277.64h3.37l8.07-18.8h-3.71l-4.74,11.47c-.58,1.4-1.02,2.59-1.34,3.58-.42-1.31-.87-2.58-1.36-3.79l-4.58-11.26h-3.82l8.11,18.8ZM542.87,251.68h3.62v3.67h-3.62v-3.67ZM542.87,258.84h3.62v18.8h-3.62v-18.8ZM565.89,270.75l3.55.41c-.38,2.16-1.38,3.85-2.98,5.07-1.6,1.22-3.56,1.83-5.89,1.83-2.91,0-5.26-.84-7.03-2.52-1.78-1.68-2.67-4.09-2.67-7.24,0-2.03.38-3.81,1.14-5.33.77-1.52,1.92-2.67,3.49-3.43,1.55-.76,3.25-1.14,5.08-1.14,2.32,0,4.21.52,5.68,1.55,1.47,1.03,2.42,2.5,2.84,4.4l-3.51.48c-.34-1.26-.93-2.21-1.78-2.85-.85-.63-1.88-.96-3.08-.96-1.82,0-3.3.57-4.44,1.73-1.14,1.15-1.71,2.97-1.71,5.46s.55,4.36,1.65,5.51c1.1,1.14,2.53,1.72,4.29,1.72,1.42,0,2.6-.39,3.55-1.15.95-.77,1.55-1.95,1.81-3.54M572.55,251.68h3.62v3.67h-3.62v-3.67ZM572.55,258.84h3.62v18.8h-3.62v-18.8ZM580.32,268.24c0-3.48,1.09-6.06,3.29-7.74,1.83-1.39,4.06-2.09,6.7-2.09,2.93,0,5.33.85,7.18,2.54,1.86,1.69,2.79,4.03,2.79,7.02,0,2.42-.41,4.33-1.23,5.71-.82,1.39-2.02,2.47-3.59,3.23-1.58.77-3.29,1.15-5.15,1.15-2.98,0-5.39-.84-7.23-2.53-1.84-1.69-2.76-4.12-2.76-7.3M584.03,268.24c0,2.41.6,4.21,1.79,5.41,1.19,1.2,2.69,1.8,4.49,1.8s3.29-.6,4.48-1.81c1.19-1.2,1.78-3.04,1.78-5.51,0-2.33-.6-4.09-1.79-5.29-1.2-1.2-2.68-1.79-4.47-1.79s-3.3.6-4.49,1.79c-1.19,1.19-1.79,2.99-1.79,5.4M629.76,277.64v-2.38c-1.35,1.87-3.34,2.8-5.96,2.8-1.7,0-3.26-.41-4.68-1.24-1.42-.82-2.53-1.98-3.32-3.46-.78-1.48-1.17-3.18-1.17-5.11s.36-3.58,1.06-5.11c.71-1.53,1.77-2.7,3.19-3.51,1.42-.81,3.01-1.23,4.76-1.23,1.28,0,2.43.24,3.42.72,1.01.48,1.82,1.1,2.45,1.87v-9.31h3.59v25.96h-3.35ZM618.35,268.26c0,2.41.58,4.21,1.73,5.4,1.15,1.19,2.51,1.79,4.08,1.79s2.92-.57,4.02-1.71c1.1-1.14,1.66-2.88,1.66-5.22,0-2.57-.56-4.46-1.68-5.66-1.12-1.21-2.51-1.81-4.16-1.81s-2.95.58-4.02,1.73c-1.08,1.16-1.62,2.98-1.62,5.47M653.38,271.59l3.73.4c-.59,1.93-1.68,3.42-3.27,4.48-1.6,1.06-3.63,1.59-6.1,1.59-3.12,0-5.59-.85-7.41-2.54-1.83-1.69-2.74-4.07-2.74-7.13s.92-5.62,2.77-7.37c1.85-1.75,4.24-2.62,7.18-2.62s5.18.86,6.98,2.57c1.81,1.71,2.71,4.12,2.71,7.22,0,.19,0,.48-.02.85h-15.89c.13,2.07.79,3.65,1.99,4.74,1.19,1.1,2.67,1.65,4.45,1.65,1.32,0,2.45-.31,3.39-.92.94-.61,1.68-1.59,2.23-2.94M641.52,266.43h11.9c-.16-1.58-.62-2.77-1.36-3.55-1.15-1.23-2.64-1.84-4.47-1.84-1.66,0-3.05.49-4.18,1.47-1.13.98-1.75,2.29-1.88,3.93M668.03,277.64l11.3-25.96h4.19l12.04,25.96h-4.44l-3.43-7.86h-12.3l-3.23,7.86h-4.14ZM676.52,266.98h9.98l-3.08-7.19c-.93-2.18-1.63-3.98-2.08-5.39-.38,1.67-.9,3.32-1.59,4.96l-3.23,7.61ZM706.1,274.79l.52,2.82c-1.01.19-1.92.28-2.72.28-1.32,0-2.33-.18-3.06-.55-.72-.36-1.22-.85-1.52-1.44-.3-.59-.45-1.85-.45-3.76v-10.82h-2.65v-2.48h2.65v-4.66l3.6-1.91v6.57h3.63v2.48h-3.63v10.99c0,.91.06,1.49.18,1.75.13.26.34.47.62.62.29.15.7.23,1.23.23.4,0,.93-.04,1.59-.13M724.22,271.59l3.73.4c-.59,1.93-1.68,3.42-3.27,4.48-1.59,1.06-3.63,1.59-6.1,1.59-3.12,0-5.59-.85-7.41-2.54-1.83-1.69-2.74-4.07-2.74-7.13s.92-5.62,2.77-7.37c1.85-1.75,4.24-2.62,7.18-2.62s5.18.86,6.98,2.57c1.81,1.71,2.71,4.12,2.71,7.22,0,.19,0,.48-.02.85h-15.89c.13,2.07.79,3.65,1.99,4.74,1.19,1.1,2.67,1.65,4.45,1.65,1.32,0,2.45-.31,3.39-.92.94-.61,1.68-1.59,2.23-2.94M712.36,266.43h11.9c-.16-1.58-.62-2.77-1.36-3.55-1.15-1.23-2.64-1.84-4.47-1.84-1.66,0-3.05.49-4.18,1.47-1.13.98-1.75,2.29-1.88,3.93M732.49,277.64v-18.8h3.25v2.67c1.57-2.07,3.83-3.1,6.78-3.1,1.29,0,2.47.21,3.54.61,1.08.41,1.88.94,2.42,1.61.54.66.91,1.45,1.13,2.35.13.59.2,1.62.2,3.1v11.56h-3.62v-11.44c0-1.29-.14-2.27-.42-2.91-.28-.64-.78-1.15-1.49-1.53-.72-.39-1.56-.58-2.52-.58-1.54,0-2.86.44-3.99,1.29-1.12.86-1.67,2.5-1.67,4.91v10.27h-3.61ZM769.25,270.75l3.55.41c-.38,2.16-1.38,3.85-2.98,5.07-1.6,1.22-3.56,1.83-5.89,1.83-2.91,0-5.26-.84-7.03-2.52-1.77-1.68-2.66-4.09-2.66-7.24,0-2.03.38-3.81,1.14-5.33.77-1.52,1.92-2.67,3.49-3.43,1.55-.76,3.25-1.14,5.08-1.14,2.31,0,4.21.52,5.68,1.55,1.47,1.03,2.42,2.5,2.84,4.4l-3.51.48c-.34-1.26-.93-2.21-1.78-2.85-.85-.63-1.88-.96-3.08-.96-1.82,0-3.3.57-4.44,1.73-1.14,1.15-1.71,2.97-1.71,5.46s.55,4.36,1.65,5.51c1.1,1.14,2.53,1.72,4.29,1.72,1.42,0,2.6-.39,3.55-1.15.95-.77,1.55-1.95,1.81-3.54M775.91,251.68h3.61v3.67h-3.61v-3.67ZM775.91,258.84h3.61v18.8h-3.61v-18.8ZM783.67,268.24c0-3.48,1.1-6.06,3.29-7.74,1.83-1.39,4.06-2.09,6.7-2.09,2.93,0,5.33.85,7.18,2.54,1.86,1.69,2.79,4.03,2.79,7.02,0,2.42-.41,4.33-1.23,5.71-.82,1.39-2.02,2.47-3.59,3.23-1.58.77-3.29,1.15-5.15,1.15-2.98,0-5.39-.84-7.23-2.53-1.84-1.69-2.76-4.12-2.76-7.3M787.39,268.24c0,2.41.6,4.21,1.79,5.41,1.19,1.2,2.69,1.8,4.49,1.8s3.29-.6,4.48-1.81c1.19-1.2,1.78-3.04,1.78-5.51,0-2.33-.6-4.09-1.8-5.29-1.2-1.2-2.68-1.79-4.47-1.79s-3.3.6-4.49,1.79c-1.19,1.19-1.79,2.99-1.79,5.4M791.66,256.5l2.67-4.96h4.74l-4.41,4.96h-2.99ZM807.88,277.64v-18.8h3.25v2.67c1.57-2.07,3.83-3.1,6.78-3.1,1.29,0,2.47.21,3.54.61,1.08.41,1.88.94,2.42,1.61.54.66.91,1.45,1.13,2.35.13.59.2,1.62.2,3.1v11.56h-3.62v-11.44c0-1.29-.14-2.27-.42-2.91-.28-.64-.78-1.15-1.49-1.53-.72-.39-1.55-.58-2.52-.58-1.54,0-2.86.44-3.99,1.29-1.12.86-1.67,2.5-1.67,4.91v10.27h-3.61ZM840.63,270.28l3.51-.42c.09,1.98.51,3.34,1.26,4.07.76.73,1.79,1.09,3.11,1.09.98,0,1.82-.19,2.53-.59.71-.39,1.2-.93,1.47-1.61.27-.68.4-1.76.4-3.25v-17.88h3.89v17.69c0,2.17-.3,3.86-.89,5.05-.59,1.19-1.54,2.1-2.83,2.73-1.29.62-2.81.94-4.55.94-2.58,0-4.55-.65-5.93-1.96-1.37-1.31-2.03-3.26-1.97-5.84M876.67,277.64v-2.76c-1.66,2.13-3.92,3.19-6.77,3.19-1.25,0-2.43-.21-3.52-.64-1.09-.42-1.9-.96-2.43-1.6-.53-.65-.9-1.43-1.12-2.36-.14-.63-.22-1.62-.22-2.98v-11.65h3.61v10.43c0,1.67.07,2.79.22,3.37.23.84.71,1.49,1.44,1.98.74.48,1.65.71,2.73.71s2.1-.24,3.05-.73c.95-.49,1.62-1.16,2.01-2,.4-.85.6-2.07.6-3.67v-10.08h3.61v18.8h-3.23ZM885.52,277.64v-18.8h3.25v2.85c.83-1.33,1.6-2.21,2.3-2.64.7-.42,1.47-.64,2.31-.64,1.22,0,2.45.34,3.71,1.03l-1.25,2.96c-.88-.47-1.76-.7-2.64-.7-.79,0-1.5.21-2.13.63-.63.42-1.08,1-1.34,1.75-.4,1.13-.6,2.37-.6,3.72v9.85h-3.61ZM900.5,258.84h3.61v18.8h-3.61v-18.8ZM900.32,256.5l2.67-4.96h4.73l-4.41,4.96h-2.99ZM924.49,277.64v-2.38c-1.35,1.87-3.34,2.8-5.96,2.8-1.7,0-3.26-.41-4.68-1.24-1.42-.82-2.53-1.98-3.32-3.46-.78-1.48-1.17-3.18-1.17-5.11s.36-3.58,1.06-5.11c.71-1.53,1.78-2.7,3.19-3.51,1.42-.81,3.01-1.23,4.76-1.23,1.28,0,2.42.24,3.42.72,1.01.48,1.82,1.1,2.45,1.87v-9.31h3.59v25.96h-3.35ZM913.07,268.26c0,2.41.57,4.21,1.73,5.4s2.51,1.79,4.08,1.79,2.92-.57,4.02-1.71c1.1-1.14,1.66-2.88,1.66-5.22,0-2.57-.56-4.46-1.68-5.66-1.12-1.21-2.51-1.81-4.16-1.81s-2.95.58-4.02,1.73c-1.08,1.16-1.62,2.98-1.62,5.47M933.53,251.68h3.62v3.67h-3.62v-3.67ZM933.53,258.84h3.62v18.8h-3.62v-18.8ZM956.55,270.75l3.55.41c-.38,2.16-1.38,3.85-2.98,5.07-1.59,1.22-3.56,1.83-5.89,1.83-2.91,0-5.26-.84-7.03-2.52-1.77-1.68-2.66-4.09-2.66-7.24,0-2.03.39-3.81,1.15-5.33.77-1.52,1.92-2.67,3.49-3.43,1.55-.76,3.26-1.14,5.08-1.14,2.32,0,4.21.52,5.68,1.55,1.47,1.03,2.42,2.5,2.84,4.4l-3.51.48c-.34-1.26-.92-2.21-1.77-2.85-.85-.63-1.88-.96-3.08-.96-1.82,0-3.3.57-4.44,1.73-1.14,1.15-1.71,2.97-1.71,5.46s.55,4.36,1.65,5.51c1.09,1.14,2.53,1.72,4.29,1.72,1.42,0,2.6-.39,3.55-1.15.95-.77,1.56-1.95,1.81-3.54M977.1,275.32c-1.34,1-2.63,1.71-3.86,2.13-1.24.41-2.57.62-3.99.62-2.34,0-4.14-.5-5.4-1.51-1.25-1.01-1.88-2.3-1.88-3.87,0-.93.23-1.77.71-2.53.47-.76,1.1-1.37,1.86-1.83.77-.46,1.64-.81,2.6-1.05.71-.16,1.77-.33,3.21-.48,2.92-.31,5.07-.67,6.45-1.1.01-.43.02-.71.02-.83,0-1.3-.34-2.22-1.03-2.74-.92-.73-2.29-1.08-4.11-1.08-1.7,0-2.95.26-3.77.79-.81.53-1.4,1.46-1.79,2.79l-3.53-.43c.32-1.33.85-2.41,1.58-3.23.73-.82,1.8-1.46,3.19-1.9,1.39-.44,3-.67,4.84-.67s3.29.19,4.43.57c1.14.38,1.98.85,2.51,1.43.54.57.91,1.29,1.12,2.17.12.54.18,1.52.18,2.94v4.25c0,2.97.08,4.84.23,5.62.15.79.46,1.54.91,2.26h-3.77c-.37-.66-.62-1.43-.72-2.32M976.8,268.2c-1.32.48-3.28.88-5.9,1.21-1.49.19-2.54.4-3.15.64-.62.24-1.1.58-1.42,1.04-.34.45-.51.96-.51,1.51,0,.85.37,1.56,1.09,2.13.73.56,1.79.85,3.2.85s2.63-.26,3.71-.8c1.08-.54,1.88-1.28,2.39-2.21.39-.72.58-1.78.58-3.19v-1.17ZM1010.07,277.64h-3.61v-20.31c-.87.73-2.01,1.46-3.42,2.19-1.42.73-2.68,1.28-3.81,1.64v-3.08c2.02-.84,3.79-1.85,5.3-3.05,1.51-1.2,2.58-2.35,3.21-3.47h2.32v26.07ZM1019.32,264.84c0-3.07.35-5.54,1.08-7.41.71-1.87,1.78-3.32,3.19-4.33,1.41-1.01,3.18-1.52,5.32-1.52,1.58,0,2.97.28,4.16.85,1.19.56,2.17,1.37,2.95,2.42.77,1.06,1.38,2.35,1.82,3.86.44,1.52.66,3.56.66,6.13,0,3.05-.36,5.5-1.06,7.37-.71,1.88-1.77,3.32-3.18,4.34-1.41,1.02-3.19,1.53-5.35,1.53-2.84,0-5.06-.89-6.68-2.69-1.94-2.16-2.91-5.68-2.91-10.55M1023.03,264.84c0,4.26.57,7.1,1.7,8.51,1.13,1.41,2.52,2.12,4.18,2.12s3.06-.71,4.18-2.13c1.13-1.41,1.7-4.25,1.7-8.5s-.57-7.11-1.7-8.52c-1.13-1.41-2.53-2.11-4.22-2.11s-2.99.62-3.98,1.86c-1.24,1.58-1.86,4.5-1.86,8.76M1042.18,264.84c0-3.07.35-5.54,1.07-7.41.71-1.87,1.78-3.32,3.19-4.33,1.41-1.01,3.18-1.52,5.32-1.52,1.58,0,2.97.28,4.16.85,1.19.56,2.17,1.37,2.95,2.42.77,1.06,1.39,2.35,1.82,3.86.44,1.52.66,3.56.66,6.13,0,3.05-.36,5.5-1.06,7.37-.71,1.88-1.77,3.32-3.18,4.34-1.41,1.02-3.19,1.53-5.35,1.53-2.84,0-5.06-.89-6.68-2.69-1.94-2.16-2.91-5.68-2.91-10.55M1045.89,264.84c0,4.26.57,7.1,1.7,8.51,1.13,1.41,2.52,2.12,4.18,2.12s3.05-.71,4.18-2.13c1.13-1.41,1.7-4.25,1.7-8.5s-.57-7.11-1.7-8.52c-1.13-1.41-2.54-2.11-4.22-2.11s-2.99.62-3.98,1.86c-1.24,1.58-1.86,4.5-1.86,8.76M1065.72,257.92c0-1.85.53-3.43,1.58-4.73,1.05-1.3,2.59-1.95,4.6-1.95,1.85,0,3.38.58,4.58,1.74,1.21,1.17,1.82,2.88,1.82,5.13s-.62,3.89-1.84,5.07c-1.22,1.19-2.73,1.78-4.52,1.78s-3.26-.58-4.44-1.75c-1.18-1.17-1.77-2.93-1.77-5.3M1072,253.44c-.9,0-1.64.34-2.24,1.03-.6.68-.89,1.94-.89,3.77,0,1.66.3,2.83.9,3.52.6.68,1.35,1.01,2.23,1.01s1.66-.34,2.25-1.03c.6-.68.9-1.93.9-3.75,0-1.67-.3-2.85-.9-3.53-.6-.68-1.36-1.02-2.25-1.02M1072.02,278.6h2.99l16.03-27.36h-2.93l-16.09,27.36ZM1084.74,271.55c0-1.86.53-3.45,1.58-4.74,1.06-1.29,2.6-1.93,4.61-1.93,1.85,0,3.38.58,4.59,1.74,1.2,1.17,1.82,2.87,1.82,5.12s-.62,3.89-1.84,5.08c-1.23,1.19-2.74,1.78-4.55,1.78s-3.26-.59-4.45-1.76c-1.19-1.18-1.77-2.94-1.77-5.29M1091.04,267.07c.9,0,1.64.34,2.25,1.01.6.68.9,1.86.9,3.54,0,1.82-.3,3.07-.9,3.75-.59.68-1.35,1.03-2.27,1.03s-1.62-.34-2.23-1.03c-.6-.68-.91-1.85-.91-3.51,0-1.83.29-3.09.89-3.77.6-.68,1.35-1.03,2.26-1.03M1114.54,277.64v-25.96h21.27v3.07h-17.38v7.95h16.27v3.05h-16.27v8.84h18.06v3.06h-21.95ZM1139,277.64l7.79-9.77-7.2-9.03h4.51l3.27,4.41c.61.84,1.11,1.54,1.48,2.11.59-.78,1.13-1.47,1.63-2.07l3.59-4.44h4.32l-7.36,8.85,7.92,9.95h-4.43l-4.38-5.84-1.16-1.58-5.6,7.42h-4.38ZM1161.96,284.85v-26.01h3.29v2.44c.77-.95,1.65-1.67,2.63-2.15.97-.48,2.16-.72,3.55-.72,1.82,0,3.42.42,4.81,1.24,1.4.83,2.45,1.99,3.15,3.5.71,1.51,1.07,3.16,1.07,4.95,0,1.92-.39,3.66-1.18,5.2-.78,1.54-1.92,2.72-3.41,3.54-1.49.82-3.06,1.23-4.71,1.23-1.21,0-2.28-.23-3.24-.67-.96-.45-1.74-1.02-2.35-1.7v9.15h-3.61ZM1165.23,268.35c0,2.42.56,4.21,1.66,5.37,1.11,1.15,2.46,1.73,4.04,1.73s2.98-.6,4.12-1.8c1.14-1.2,1.72-3.05,1.72-5.57s-.56-4.19-1.68-5.39c-1.12-1.19-2.45-1.79-4-1.79s-2.91.64-4.09,1.91c-1.18,1.27-1.77,3.12-1.77,5.54M1199.4,271.59l3.73.4c-.59,1.93-1.68,3.42-3.27,4.48-1.6,1.06-3.63,1.59-6.1,1.59-3.12,0-5.59-.85-7.41-2.54-1.83-1.69-2.74-4.07-2.74-7.13s.92-5.62,2.77-7.37c1.85-1.75,4.24-2.62,7.19-2.62s5.18.86,6.98,2.57c1.81,1.71,2.71,4.12,2.71,7.22,0,.19,0,.48-.02.85h-15.89c.13,2.07.79,3.65,1.98,4.74,1.19,1.1,2.67,1.65,4.45,1.65,1.32,0,2.45-.31,3.39-.92.94-.61,1.68-1.59,2.23-2.94M1187.54,266.43h11.9c-.16-1.58-.62-2.77-1.36-3.55-1.15-1.23-2.64-1.84-4.47-1.84-1.66,0-3.06.49-4.19,1.47-1.13.98-1.75,2.29-1.88,3.93M1207.63,277.64v-18.8h3.25v2.85c.83-1.33,1.6-2.21,2.3-2.64.7-.42,1.47-.64,2.31-.64,1.22,0,2.45.34,3.71,1.03l-1.25,2.96c-.88-.47-1.76-.7-2.64-.7-.79,0-1.5.21-2.13.63-.63.42-1.07,1-1.34,1.75-.41,1.13-.6,2.37-.6,3.72v9.85h-3.61ZM1229.24,274.79l.52,2.82c-1.01.19-1.92.28-2.72.28-1.32,0-2.33-.18-3.06-.55-.72-.36-1.23-.85-1.52-1.44-.3-.59-.44-1.85-.44-3.76v-10.82h-2.65v-2.48h2.65v-4.66l3.59-1.91v6.57h3.63v2.48h-3.63v10.99c0,.91.06,1.49.18,1.75.13.26.34.47.62.62.29.15.7.23,1.23.23.4,0,.93-.04,1.59-.13M1231.43,268.24c0-3.48,1.1-6.06,3.29-7.74,1.83-1.39,4.06-2.09,6.7-2.09,2.93,0,5.33.85,7.18,2.54,1.86,1.69,2.79,4.03,2.79,7.02,0,2.42-.41,4.33-1.23,5.71-.82,1.39-2.02,2.47-3.59,3.23-1.57.77-3.29,1.15-5.15,1.15-2.98,0-5.39-.84-7.23-2.53-1.84-1.69-2.76-4.12-2.76-7.3M1235.14,268.24c0,2.41.6,4.21,1.79,5.41,1.19,1.2,2.69,1.8,4.49,1.8s3.29-.6,4.48-1.81c1.18-1.2,1.78-3.04,1.78-5.51,0-2.33-.6-4.09-1.8-5.29-1.2-1.2-2.68-1.79-4.46-1.79s-3.3.6-4.49,1.79c-1.19,1.19-1.79,2.99-1.79,5.4"/>
  <path class="cls-3" d="M21.22,150.57h2546.56c12.77,0,23.22,2.39,23.22,5.32v7.52c0,2.93-10.45,5.32-23.22,5.32H21.22c-12.78,0-23.22-2.39-23.22-5.32v-7.52c0-2.93,10.44-5.32,23.22-5.32"/>
  <circle class="cls-2" cx="253" cy="170" r="162"/>
  <g>
    <path class="cls-1" d="M160.87,242.99c-31.69-41.58-16.31-106.57,34.22-144.66,50.53-38.1,117.59-35.25,149.28,6.33,31.68,41.58,16.31,106.57-34.22,144.66-50.53,38.09-117.59,35.25-149.28-6.33M160.8,243.05c28.41,37.29,92.79,36.64,143.3-1.44,50.52-38.08,68.54-99.55,40.13-136.84-28.41-37.29-92.79-36.64-143.3,1.44-50.52,38.08-68.54,99.55-40.13,136.84M160.91,242.96c17.95,23.56,73.76,11.73,124.25-26.33,50.48-38.06,77.02-88.31,59.07-111.87-17.95-23.56-73.76-11.73-124.25,26.33-50.48,38.06-77.02,88.31-59.07,111.87M160.91,242.96c13.79,18.09,66.2,1.81,116.69-36.25,50.48-38.06,80.42-83.85,66.63-101.94-13.79-18.09-66.2-1.81-116.69,36.25-50.49,38.06-80.42,83.86-66.63,101.95M162.86,245.52c.57.75,1.64.92,2.37.37l180.37-135.97c.73-.55.86-1.62.29-2.37l-3.9-5.12c-.58-.75-1.64-.92-2.37-.37l-180.37,135.98c-.73.55-.86,1.62-.29,2.37l3.9,5.12ZM181.72,81.58c-50.66,38.19-60.06,111.22-20.93,162.57,39.13,51.35,112.36,62.09,163.02,23.9,50.66-38.19,60.06-111.22,20.93-162.57-39.13-51.35-112.36-62.09-163.02-23.9M181.73,81.6c-41.05,30.95-42.59,98.12-3.42,149.53,39.17,51.41,104.6,68.09,145.66,37.14,41.06-30.95,42.6-98.12,3.42-149.53-39.17-51.41-104.6-68.09-145.66-37.14M181.68,81.52c-36.82,27.75-34.91,92.3,4.24,143.69,39.16,51.39,101.12,70.66,137.94,42.9,36.82-27.76,34.91-92.3-4.24-143.69-39.16-51.39-101.12-70.66-137.94-42.9M181.76,81.64c-23.26,17.54-10.31,73.72,28.82,125.08,39.13,51.36,90.02,78.94,113.28,61.4,23.26-17.53,10.31-73.72-28.82-125.07-39.13-51.36-90.02-78.94-113.28-61.41M181.76,81.64c-17.86,13.47-.52,66.34,38.61,117.69,39.13,51.35,85.62,82.26,103.48,68.79,17.86-13.47.52-66.34-38.61-117.69-39.13-51.36-85.62-82.26-103.48-68.79M179.24,83.54c-.74.56-.89,1.63-.32,2.37l139.81,183.48c.57.74,1.64.89,2.38.33l5.06-3.81c.74-.56.89-1.63.32-2.37L186.67,80.06c-.57-.74-1.64-.89-2.38-.33l-5.06,3.81Z"/>
    <path class="cls-6" d="M146.11,273.14l4.58-5.32.33.34c-1.03,1.94-1.47,3.66-1.31,5.15.16,1.49.81,2.83,1.94,4,.95.98,2.04,1.62,3.3,1.92,1.25.3,2.63.14,4.13-.49,1.5-.62,3.04-1.74,4.62-3.35,1.3-1.33,2.23-2.69,2.77-4.09.54-1.4.66-2.79.34-4.18-.32-1.38-1.01-2.63-2.08-3.73-.92-.96-1.94-1.61-3.05-1.94-1.11-.33-2.68-.33-4.72,0l-.11-.56c2-.56,3.77-.65,5.32-.26,1.55.39,2.98,1.26,4.29,2.62,2.36,2.46,3.31,5.26,2.83,8.41-.35,2.34-1.42,4.43-3.21,6.24-1.44,1.46-3.08,2.47-4.92,3.04-1.84.56-3.66.6-5.44.11-1.78-.49-3.33-1.42-4.66-2.8-1.03-1.07-1.79-2.39-2.28-3.95-.14-.46-.27-.76-.4-.89-.19-.2-.42-.3-.7-.31-.37,0-.77.14-1.19.4l-.37-.38Z"/>
    <path class="cls-6" d="M140.7,263.44l6.5-4.82-2.61-3.71c-.68-.96-1.27-1.5-1.78-1.62-.68-.16-1.5.09-2.47.74l-.32-.46,5.73-4.24.32.46c-.72.71-1.15,1.21-1.29,1.49-.18.36-.23.77-.15,1.23.08.46.36,1.04.86,1.75l2.61,3.71,5.42-4.02c.73-.54,1.15-.9,1.26-1.09.11-.18.16-.39.13-.63-.02-.23-.2-.58-.53-1.05l-2.01-2.87c-.67-.95-1.22-1.6-1.66-1.94-.43-.34-.98-.56-1.64-.68-.86-.14-1.99-.11-3.38.1l-.35-.5,5.15-1.6,9.15,13.02-.45.33-.42-.6c-.28-.4-.64-.71-1.08-.93-.32-.17-.64-.21-.96-.11-.33.1-.89.44-1.69,1.04l-10.69,7.92c-1.04.77-1.61,1.36-1.7,1.75-.11.54.08,1.16.57,1.86l.42.6-.45.33-9.15-13.02,3.47-2.86.34.49c-.74.81-1.2,1.45-1.38,1.9-.17.45-.2.95-.08,1.49.11.42.46,1.05,1.05,1.89l3.26,4.64Z"/>
    <path class="cls-6" d="M131.38,252.1l-2.46-5.06,8.07-18.38-10.46,5.37c-1.12.57-1.75,1.06-1.9,1.46-.21.53-.14,1.16.22,1.9l.31.64-.5.26-3.15-6.49.5-.25.32.66c.38.79.89,1.23,1.51,1.32.38.05,1.08-.18,2.1-.7l15.3-7.85.24.49-8.64,19.79,11.17-5.73c1.12-.57,1.75-1.05,1.91-1.44.2-.54.13-1.18-.22-1.9l-.32-.66.5-.25,3.15,6.49-.5.25-.31-.65c-.39-.8-.89-1.24-1.52-1.33-.38-.06-1.08.18-2.1.7l-12.62,6.48c-.35.86-.56,1.47-.62,1.85-.06.38-.05.88.05,1.51.05.31.21.73.47,1.27l-.5.25Z"/>
    <path class="cls-6" d="M115.23,211.61l4.47-1.68.17.56c-.77.36-1.29.7-1.58.99-.46.48-.74,1.01-.85,1.6-.11.59-.04,1.29.21,2.12l.85,2.8,14.79-4.75c1.19-.38,1.89-.75,2.11-1.11.29-.5.31-1.14.08-1.91l-.21-.69.53-.17,2.57,8.43-.53.17-.21-.7c-.25-.84-.69-1.36-1.29-1.55-.37-.12-1.1,0-2.18.34l-14.79,4.75.73,2.39c.28.93.55,1.57.8,1.92.34.45.82.77,1.44.97.62.2,1.38.19,2.28-.02l.17.56-4.61,1.22-4.94-16.24Z"/>
    <path class="cls-6" d="M131.29,184.17l.81,5.5-8.35,8.44c.1.51.17.93.22,1.26.02.13.04.27.05.43.02.15.03.31.05.48l5.83-.91c1.26-.2,2.03-.46,2.29-.79.38-.45.51-1.06.39-1.83l-.12-.8.55-.09,1.3,8.83-.55.08-.12-.77c-.13-.87-.5-1.45-1.1-1.74-.34-.16-1.08-.16-2.22.02l-12.96,2.02c-1.26.2-2.02.46-2.29.79-.37.46-.51,1.08-.39,1.86l.11.78-.55.09-1.11-7.5c-.32-2.19-.41-3.83-.25-4.91.16-1.08.6-2.06,1.32-2.91.73-.85,1.67-1.37,2.82-1.55,1.23-.19,2.36.05,3.39.74,1.03.69,1.86,1.86,2.49,3.54l5.12-5.15c1.18-1.18,1.93-2.15,2.26-2.92.33-.77.47-1.72.42-2.86l.55-.08ZM123.14,200.41c-.03-.19-.05-.36-.07-.5-.02-.14-.03-.26-.05-.35-.29-1.96-.92-3.38-1.9-4.25-.98-.87-2.1-1.2-3.39-1-1.25.2-2.21.76-2.87,1.68-.66.93-.9,2.06-.7,3.38.09.59.3,1.37.64,2.34l8.34-1.3Z"/>
    <path class="cls-6" d="M110.76,173.38c.05-2.71,1.09-5.03,3.12-6.98,2.03-1.94,4.55-2.89,7.54-2.84,3.08.06,5.62,1.1,7.62,3.14,2,2.04,2.97,4.47,2.93,7.31-.05,2.87-1.08,5.26-3.1,7.17-2.02,1.92-4.6,2.85-7.75,2.79-3.22-.06-5.83-1.23-7.82-3.52-1.73-1.99-2.57-4.35-2.53-7.07M111.85,173.7c-.03,1.86.61,3.37,1.94,4.52,1.65,1.43,4.09,2.18,7.32,2.24,3.31.06,5.87-.62,7.68-2.04,1.37-1.09,2.08-2.55,2.11-4.39.03-1.96-.68-3.58-2.15-4.89-1.46-1.3-3.8-1.98-7-2.04-3.47-.06-6.07.59-7.8,1.96-1.37,1.1-2.08,2.65-2.11,4.64"/>
    <path class="cls-6" d="M114.33,148.42l-.54-.12,1.84-8.73.54.12-.16.74c-.18.83-.06,1.49.33,1.98.26.31.99.6,2.18.86l9.69,2.16c1.49.33,2.67.77,3.52,1.31.86.54,1.54,1.3,2.05,2.27.51.98.65,2.04.4,3.2-.2.94-.58,1.63-1.15,2.07-.57.44-1.14.59-1.73.46-.48-.11-.81-.31-1-.62-.23-.4-.3-.82-.21-1.26.07-.32.23-.59.49-.8.26-.21.87-.41,1.84-.6.57-.11.9-.35.98-.71.06-.27-.05-.56-.32-.87-.27-.31-.82-.55-1.64-.73l-13.54-3.01c-1-.22-1.68-.31-2.03-.25-.26.05-.52.21-.76.49-.32.38-.54.81-.64,1.29l-.15.73Z"/>
    <path class="cls-6" d="M121.39,123.35l-.52-.19,2.44-6.94.52.19-.26.74c-.27.77-.17,1.48.32,2.13.22.31.86.66,1.92,1.06l7.74,2.87c1.91.71,3.33,1.46,4.25,2.24.92.78,1.55,1.88,1.91,3.3.35,1.42.18,3.12-.51,5.08-.75,2.14-1.69,3.63-2.8,4.47-1.11.84-2.36,1.26-3.74,1.27-.94,0-2.56-.43-4.86-1.28l-7.46-2.77c-1.17-.43-2-.55-2.48-.36-.48.19-.85.66-1.12,1.41l-.26.74-.52-.19,2.98-8.47.52.19-.26.75c-.29.81-.24,1.48.13,2.01.25.37.91.75,1.98,1.14l8.31,3.09c.74.28,1.61.52,2.62.74,1,.21,1.84.24,2.5.07.66-.17,1.29-.53,1.88-1.09.59-.56,1.06-1.34,1.41-2.34.45-1.28.58-2.53.39-3.74-.19-1.21-.64-2.16-1.36-2.85-.72-.69-2.09-1.41-4.12-2.16l-7.72-2.87c-1.19-.44-1.98-.58-2.38-.42-.55.22-.95.7-1.21,1.44l-.26.74Z"/>
    <path class="cls-6" d="M152.4,105.25l-2.66,4.85-11.63,1.35c-.23.47-.43.84-.58,1.13-.06.12-.13.24-.21.37-.08.13-.16.27-.25.4l5.13,2.97c1.11.64,1.87.92,2.28.83.57-.12,1.04-.51,1.41-1.19l.39-.71.48.28-4.27,7.78-.48-.28.37-.68c.42-.77.48-1.46.17-2.07-.17-.34-.75-.81-1.76-1.39l-11.41-6.61c-1.11-.65-1.87-.92-2.28-.83-.57.13-1.05.53-1.43,1.22l-.37.68-.48-.28,3.63-6.61c1.06-1.93,1.97-3.27,2.75-4.03.78-.75,1.71-1.24,2.79-1.45,1.08-.21,2.13-.02,3.15.57,1.09.63,1.83,1.54,2.23,2.73.4,1.19.34,2.64-.16,4.36l7.13-.81c1.63-.18,2.81-.47,3.53-.86.72-.39,1.4-1.06,2.05-1.99l.48.28ZM136.24,112.88c.09-.17.18-.31.25-.44.07-.12.13-.22.18-.31.95-1.73,1.3-3.25,1.06-4.55-.25-1.3-.94-2.28-2.06-2.93-1.1-.64-2.2-.8-3.27-.5-1.08.31-1.94,1.05-2.58,2.22-.28.52-.59,1.27-.91,2.24l7.35,4.26Z"/>
    <path class="cls-6" d="M135.54,82.83l1.55,6.79-.3.42-3.23-4.44,1.98-2.77ZM157.35,98.02l.45.34-5.15,7.2-.45-.34.43-.59c.5-.7.66-1.35.49-1.96-.12-.39-.66-.96-1.64-1.7l-10.56-7.97c-.83-.62-1.41-.98-1.76-1.08-.26-.07-.55-.03-.88.12-.45.22-.82.52-1.1.92l-.42.6-.45-.34,5.14-7.2.45.33-.43.61c-.49.68-.65,1.33-.48,1.94.11.4.66.97,1.64,1.71l10.56,7.97c.83.63,1.41.98,1.76,1.08.26.07.56.03.89-.13.45-.21.81-.51,1.09-.91l.43-.61Z"/>
    <path class="cls-6" d="M157.91,97.58l-.4-.39.53-.57c.59-.64.81-1.29.66-1.94-.09-.4-.55-1-1.38-1.81l-9.49-9.28c-.92-.9-1.59-1.36-2.01-1.37-.59-.02-1.14.25-1.67.82l-.53.57-.4-.39,5.69-6.15c2.09-2.26,3.93-3.73,5.52-4.42,1.59-.69,3.3-.82,5.12-.4,1.83.42,3.5,1.38,5.03,2.87,2.04,2,3.16,4.31,3.35,6.93.2,2.93-1.05,5.86-3.77,8.79l-6.25,6.75ZM160.84,92.23c1.08-.74,1.91-1.44,2.5-2.07,1.59-1.72,2.33-3.73,2.2-6.01-.13-2.29-1.2-4.41-3.21-6.39-2.03-1.98-4.16-2.98-6.38-2.99-2.22,0-4.16.87-5.81,2.66-.62.67-1.22,1.53-1.8,2.59l12.49,12.22Z"/>
    <path class="cls-6" d="M179.57,75.68l.35.44-6.74,5.63-.35-.44.56-.47c.65-.54.97-1.13.95-1.77-.01-.41-.41-1.1-1.17-2.07l-8.27-10.45c-.65-.82-1.13-1.32-1.43-1.49-.24-.14-.53-.17-.88-.12-.49.09-.92.3-1.29.61l-.56.47-.35-.44,6.74-5.63.35.44-.57.47c-.64.54-.96,1.12-.94,1.76,0,.42.4,1.11,1.16,2.08l8.27,10.45c.65.82,1.13,1.32,1.43,1.5.24.13.53.17.89.1.48-.09.91-.29,1.28-.6l.57-.47Z"/>
    <path class="cls-6" d="M184.4,47.6l4.06,5.74-.39.25c-1.62-1.46-3.16-2.27-4.61-2.43-1.45-.16-2.86.19-4.22,1.07-1.14.74-1.99,1.7-2.55,2.89-.56,1.19-.7,2.61-.43,4.25.27,1.64.99,3.43,2.18,5.36.98,1.59,2.07,2.82,3.29,3.67,1.22.85,2.51,1.26,3.9,1.24,1.38-.02,2.72-.45,4-1.28,1.11-.72,1.95-1.6,2.5-2.64.55-1.04.89-2.62,1.02-4.74h.55c.1,2.13-.2,3.93-.9,5.4-.7,1.47-1.84,2.71-3.42,3.73-2.84,1.84-5.71,2.18-8.6,1.02-2.15-.86-3.9-2.38-5.23-4.57-1.08-1.76-1.68-3.63-1.82-5.6-.13-1.97.22-3.8,1.07-5.48.85-1.68,2.07-3.04,3.67-4.07,1.24-.8,2.66-1.28,4.25-1.43.47-.04.78-.11.93-.2.23-.15.38-.36.44-.63.08-.38.03-.8-.13-1.28l.44-.29Z"/>
    <path class="cls-6" d="M198.78,40.79c2.43-1.03,4.92-.98,7.47.15,2.55,1.14,4.4,3.13,5.54,5.97,1.18,2.92,1.26,5.74.24,8.43-1.02,2.7-2.8,4.59-5.35,5.67-2.58,1.1-5.13,1.08-7.64-.06-2.51-1.14-4.38-3.2-5.58-6.19-1.23-3.06-1.23-5.98.02-8.78,1.08-2.42,2.85-4.16,5.3-5.2M198.93,41.94c-1.68.71-2.77,1.93-3.26,3.63-.62,2.13-.31,4.72.93,7.79,1.27,3.14,2.9,5.28,4.89,6.42,1.52.86,3.11.94,4.76.24,1.76-.75,2.93-2.07,3.51-3.97.58-1.9.25-4.37-.97-7.41-1.33-3.29-2.95-5.48-4.86-6.56-1.53-.86-3.19-.9-4.98-.14"/>
    <path class="cls-6" d="M232.56,52.12l.11.56-8.5,1.84-.11-.55.7-.15c.82-.18,1.36-.55,1.64-1.12.17-.37.13-1.17-.12-2.39l-2.7-13.17c-.21-1.03-.42-1.7-.61-2-.15-.23-.39-.4-.73-.52-.48-.15-.95-.17-1.42-.07l-.7.15-.12-.56,8.5-1.84.11.56-.72.16c-.81.18-1.35.55-1.62,1.12-.18.37-.14,1.17.11,2.4l2.7,13.17c.21,1.03.41,1.7.61,2,.15.23.4.4.75.51.47.15.94.17,1.41.07l.72-.16Z"/>
    <path class="cls-6" d="M230.68,31.49l5.49-.45,13.58,14.55-.94-11.98c-.1-1.28-.3-2.06-.6-2.35-.4-.4-1-.56-1.8-.5l-.7.06-.04-.57,7.04-.58.04.57-.72.06c-.85.07-1.44.39-1.76.95-.19.34-.24,1.1-.15,2.26l1.37,17.51-.54.04-14.64-15.62,1,12.79c.1,1.28.3,2.06.59,2.36.41.4,1.01.56,1.79.5l.72-.06.04.57-7.04.58-.04-.57.7-.06c.86-.07,1.46-.39,1.77-.95.19-.35.25-1.1.15-2.26l-1.13-14.44c-.64-.66-1.12-1.09-1.45-1.28-.32-.2-.78-.37-1.38-.52-.29-.07-.74-.08-1.32-.03l-.05-.57Z"/>
    <path class="cls-6" d="M273.3,31.25l-.16,4.89-.57-.05c-.04-.87-.14-1.49-.3-1.87-.26-.62-.64-1.09-1.13-1.41-.49-.32-1.15-.52-1.99-.59l-2.85-.24-1.26,15.87c-.1,1.28-.03,2.08.21,2.42.34.46.91.73,1.69.79l.7.06-.04.57-8.57-.72.05-.57.72.06c.85.07,1.48-.14,1.88-.65.24-.31.41-1.04.51-2.21l1.26-15.87-2.43-.2c-.94-.08-1.62-.07-2.03.04-.53.15-1,.49-1.41,1.01-.41.52-.69,1.25-.83,2.18l-.57-.05.63-4.85,16.5,1.38Z"/>
    <path class="cls-6" d="M282.51,34.3l-1.82,8.02,4.34,1.04c1.13.27,1.92.28,2.38.02.61-.34,1.07-1.08,1.39-2.22l.54.13-1.61,7.06-.54-.13c.09-1.02.1-1.69.02-2-.1-.39-.32-.73-.67-1.03-.35-.3-.94-.54-1.77-.74l-4.34-1.04-1.52,6.69c-.2.9-.29,1.45-.26,1.67.03.21.13.4.3.56.17.16.52.31,1.07.44l3.35.8c1.12.27,1.95.38,2.49.34.54-.04,1.1-.23,1.67-.59.74-.48,1.57-1.26,2.48-2.35l.58.14-2.86,4.68-15.22-3.65.13-.55.7.17c.47.11.93.1,1.4-.03.35-.09.61-.27.8-.57.18-.29.39-.93.61-1.92l3-13.18c.29-1.29.35-2.11.16-2.47-.26-.48-.8-.82-1.61-1.02l-.7-.17.13-.55,15.22,3.65-.79,4.5-.57-.14c.04-1.12-.02-1.9-.18-2.36-.16-.46-.45-.85-.89-1.18-.35-.24-1.02-.48-2-.72l-5.42-1.3Z"/>
    <path class="cls-6" d="M308.64,64.02l-5.02-2.08-2.82-11.67c-.48-.18-.87-.33-1.16-.45-.12-.05-.25-.11-.39-.17-.14-.06-.28-.13-.42-.2l-2.21,5.62c-.48,1.22-.64,2.03-.5,2.43.19.56.63.99,1.34,1.28l.73.3-.21.53-8.06-3.34.21-.53.71.29c.79.33,1.47.3,2.02-.09.31-.21.68-.87,1.11-1.98l4.9-12.48c.48-1.22.64-2.03.5-2.43-.2-.57-.65-1-1.36-1.29l-.71-.29.21-.53,6.85,2.84c2,.83,3.41,1.59,4.24,2.28.83.69,1.42,1.58,1.77,2.65.35,1.08.3,2.17-.14,3.28-.47,1.19-1.25,2.06-2.34,2.63-1.1.56-2.51.7-4.23.4l1.71,7.15c.39,1.64.82,2.8,1.29,3.49.47.68,1.2,1.29,2.18,1.83l-.21.53ZM299.18,48.55c.18.07.33.14.46.2.13.06.23.11.31.14,1.79.74,3.3.91,4.53.48,1.22-.42,2.08-1.25,2.56-2.48.47-1.21.49-2.34.05-3.4-.44-1.06-1.26-1.84-2.48-2.34-.54-.22-1.3-.43-2.28-.63l-3.16,8.04Z"/>
    <path class="cls-6" d="M317.95,45.49l4.69,2.96,2.63,19.98,6.11-10.25c.65-1.09.94-1.85.86-2.27-.1-.56-.48-1.06-1.16-1.49l-.6-.38.29-.49,6.02,3.79-.29.49-.61-.38c-.73-.46-1.38-.56-1.96-.3-.35.16-.83.74-1.42,1.74l-8.93,14.98-.46-.29-2.87-21.49-6.53,10.94c-.65,1.09-.94,1.85-.88,2.26.1.57.49,1.07,1.16,1.49l.61.39-.29.48-6.02-3.79.29-.48.6.38c.74.47,1.4.57,1.98.31.35-.16.83-.74,1.42-1.74l7.37-12.36c-.14-.92-.28-1.55-.43-1.91-.14-.35-.42-.77-.82-1.26-.2-.23-.55-.51-1.05-.83l.29-.48Z"/>
    <path class="cls-6" d="M340.9,79.15l-5.89-5.34-3.15,1.53c-.78.38-1.29.72-1.55,1.01-.2.24-.27.55-.21.93.06.38.44.93,1.13,1.65l-.37.43-4.79-4.34.37-.43c.73.46,1.27.69,1.62.67.7-.02,1.76-.39,3.2-1.1l16.4-8,.39.36-5.88,17.8c-.47,1.43-.67,2.46-.59,3.09.08.62.41,1.24,1,1.84l-.37.43-6-5.44.37-.42c.63.52,1.13.78,1.5.8.37.02.66-.1.87-.35.29-.34.6-1.01.93-2.01l1.01-3.08ZM341.32,78.01l2.85-8.65-8.07,3.91,5.23,4.74Z"/>
    <path class="cls-6" d="M369.59,90.68l-5.07,4.82-.29-.37c1.22-1.83,1.82-3.49,1.8-4.99-.02-1.5-.53-2.9-1.54-4.18-.84-1.08-1.88-1.83-3.09-2.26-1.21-.43-2.6-.41-4.15.06-1.56.47-3.2,1.42-4.93,2.85-1.43,1.18-2.48,2.44-3.16,3.79-.68,1.34-.92,2.71-.74,4.12.18,1.41.75,2.72,1.71,3.93.83,1.05,1.77,1.8,2.85,2.24,1.07.44,2.64.6,4.7.49l.06.56c-2.04.35-3.82.26-5.32-.29-1.5-.54-2.84-1.56-4.01-3.05-2.11-2.69-2.78-5.57-2-8.66.58-2.3,1.85-4.26,3.8-5.88,1.58-1.31,3.31-2.15,5.2-2.52,1.89-.37,3.69-.22,5.42.45,1.72.67,3.18,1.76,4.36,3.26.92,1.17,1.55,2.56,1.89,4.16.09.48.2.79.31.93.17.21.39.34.66.38.37.03.78-.06,1.22-.28l.33.42Z"/>
    <path class="cls-6" d="M359.58,113.28l-.47.3-4.6-7.57.47-.3.38.63c.44.73.97,1.13,1.59,1.19.4.04,1.11-.28,2.14-.94l11.12-7.13c.87-.56,1.41-.98,1.62-1.28.16-.22.23-.52.22-.88-.03-.51-.17-.98-.42-1.39l-.38-.63.47-.3,4.6,7.57-.47.3-.39-.64c-.44-.72-.97-1.11-1.58-1.18-.4-.04-1.12.26-2.15.93l-11.11,7.13c-.87.56-1.41.98-1.62,1.28-.16.22-.23.52-.21.9.02.5.16.97.42,1.38l.39.64Z"/>
    <path class="cls-6" d="M383.06,115.04c1.1,2.46,1.14,5.02.13,7.68-1.01,2.66-2.88,4.63-5.6,5.91-2.8,1.32-5.53,1.51-8.19.56-2.66-.94-4.57-2.71-5.72-5.28-1.16-2.61-1.24-5.22-.23-7.85,1.01-2.62,2.95-4.61,5.81-5.96,2.93-1.38,5.77-1.48,8.54-.3,2.4,1.02,4.15,2.77,5.26,5.25M381.95,115.24c-.76-1.69-1.98-2.76-3.66-3.21-2.09-.56-4.61-.14-7.54,1.24-3.01,1.42-5.03,3.17-6.06,5.26-.78,1.6-.8,3.23-.05,4.9.8,1.78,2.13,2.93,4,3.45,1.87.52,4.26.1,7.17-1.27,3.15-1.49,5.22-3.23,6.2-5.24.78-1.6.76-3.31-.05-5.12"/>
    <path class="cls-6" d="M387.98,127.6l1.4,5.47-11.55,16.3,11.31-3.06c1.21-.33,1.92-.67,2.15-1.03.31-.47.36-1.11.16-1.9l-.18-.7.54-.15,1.8,7.01-.53.14-.18-.71c-.22-.85-.62-1.39-1.22-1.61-.36-.14-1.1-.05-2.2.25l-16.53,4.48-.14-.54,12.39-17.56-12.08,3.27c-1.21.33-1.92.66-2.15,1.01-.31.49-.36,1.12-.16,1.9l.18.72-.54.15-1.8-7.01.53-.14.18.7c.22.86.63,1.4,1.22,1.62.36.13,1.1.05,2.2-.24l13.64-3.69c.52-.76.84-1.33.97-1.69.13-.36.22-.86.25-1.49.01-.31-.06-.76-.21-1.34l.54-.15Z"/>
    <path class="cls-6" d="M381.92,168.22l-.66-8.04-3.3-1.13c-.81-.28-1.41-.4-1.8-.37-.31.03-.57.2-.77.52-.21.32-.31.99-.29,1.99l-.55.05-.54-6.54.55-.05c.22.85.46,1.4.72,1.63.52.48,1.54.97,3.05,1.48l17.23,5.87.04.53-16.22,8.69c-1.3.7-2.14,1.3-2.5,1.81-.36.51-.54,1.19-.52,2.04l-.55.05-.67-8.19.55-.05c.11.82.29,1.37.54,1.64.25.27.54.39.87.36.44-.04,1.11-.3,2.02-.79l2.81-1.51ZM382.99,167.69l7.88-4.23-8.46-2.91.59,7.14Z"/>
    <path class="cls-6" d="M379.92,194.74l-.14.5-5.35-2.22,1.22-16.09.55.04-.06.78c-.07.88.16,1.53.69,1.95.3.24,1.03.41,2.18.5l13.05,1.05c1.26.1,2.06.02,2.4-.24.47-.36.73-.94.79-1.72l.06-.78.55.04-.71,9.41-.55-.05c.09-1.1.05-1.88-.12-2.34-.18-.46-.42-.78-.72-.97-.3-.19-1.06-.33-2.26-.43l-12.71-1.02c-.82-.07-1.4-.03-1.72.11-.22.11-.39.28-.5.53-.12.25-.23,1.04-.33,2.38l-.12,1.52c-.12,1.59-.09,2.72.09,3.38.18.66.54,1.28,1.08,1.86.54.58,1.42,1.18,2.63,1.81"/>
    <path class="cls-6" d="M389.43,220.7l-6.76-1.93.15-.55c1.34.19,2.46.17,3.36-.07.89-.24,1.68-.72,2.36-1.44.68-.72,1.15-1.53,1.39-2.44.28-1.03.2-1.96-.23-2.81-.43-.85-1.03-1.38-1.81-1.6-.6-.17-1.2-.11-1.8.17-.88.41-2.24,1.59-4.06,3.55-1.49,1.6-2.58,2.66-3.29,3.2-.71.54-1.47.89-2.28,1.06-.81.17-1.61.14-2.38-.08-1.48-.42-2.6-1.38-3.35-2.86-.75-1.48-.88-3.16-.38-5.01.16-.58.35-1.12.57-1.61.13-.29.48-.88,1.04-1.75.56-.88.88-1.44.95-1.7.07-.25.05-.46-.06-.65-.11-.19-.37-.38-.81-.57l.15-.55,6.7,1.91-.15.55c-1.47-.15-2.62-.1-3.43.14-.81.24-1.57.74-2.28,1.5-.7.76-1.2,1.68-1.48,2.74-.33,1.23-.28,2.3.16,3.19.44.9,1.09,1.47,1.96,1.71.48.14,1,.14,1.57,0,.56-.13,1.13-.42,1.71-.87.39-.3,1.29-1.18,2.69-2.63,1.4-1.45,2.48-2.46,3.23-3.03.75-.57,1.52-.94,2.29-1.13.77-.18,1.56-.16,2.37.07,1.4.4,2.46,1.3,3.18,2.69.72,1.4.84,2.95.38,4.65-.29,1.07-.85,2.12-1.68,3.18-.39.48-.62.84-.68,1.07-.07.26-.05.49.05.69.1.2.37.42.79.65l-.15.55Z"/>
    <path class="cls-6" d="M369.91,222.14c-.17.45-.46.77-.88.95-.42.19-.84.2-1.27.02-.43-.17-.74-.47-.92-.9-.19-.43-.2-.87-.03-1.3.17-.44.46-.76.87-.95.42-.19.84-.2,1.27-.03.44.17.75.47.93.9.18.43.19.86.02,1.3"/>
    <path class="cls-6" d="M365.93,240.38l3.66-7.14-2.19-2.78c-.54-.69-.98-1.12-1.32-1.31-.27-.15-.58-.15-.93.01-.34.16-.78.66-1.29,1.52l-.49-.26,2.97-5.81.49.26c-.26.84-.34,1.43-.25,1.78.19.69.78,1.67,1.79,2.93l11.45,14.47-.24.47-18.22-1.65c-1.46-.13-2.48-.08-3.06.15-.57.23-1.08.71-1.5,1.43l-.49-.26,3.73-7.28.49.26c-.34.75-.48,1.31-.4,1.68.07.37.25.63.54.79.39.21,1.09.36,2.12.45l3.15.28ZM367.11,240.53l8.86.79-5.61-7.13-3.25,6.34Z"/>
    <path class="cls-6" d="M356.32,248.69c-.26.4-.62.64-1.07.72-.45.08-.86-.01-1.24-.28-.38-.27-.61-.63-.69-1.09-.08-.46,0-.89.26-1.28.26-.39.61-.63,1.06-.71.45-.09.87,0,1.24.27.39.27.62.64.7,1.1.08.46,0,.88-.27,1.27"/>
    <path class="cls-6" d="M359.13,274.74l-5.38-4.63.36-.44c1.15.75,2.18,1.2,3.09,1.36.91.16,1.82.06,2.73-.31.91-.37,1.66-.91,2.25-1.63.67-.82.97-1.7.92-2.65-.05-.95-.38-1.69-1-2.23-.47-.41-1.04-.61-1.71-.61-.97,0-2.68.49-5.13,1.5-2,.82-3.42,1.33-4.29,1.51-.86.19-1.7.19-2.5,0-.81-.19-1.52-.56-2.14-1.09-1.18-1.01-1.81-2.35-1.9-4.03-.09-1.67.47-3.25,1.68-4.72.38-.46.77-.87,1.17-1.22.24-.21.79-.6,1.65-1.15.87-.56,1.38-.94,1.55-1.14.16-.2.23-.4.21-.61-.02-.21-.19-.5-.5-.86l.35-.44,5.33,4.59-.36.44c-1.28-.76-2.34-1.2-3.18-1.33-.84-.13-1.73,0-2.67.39-.95.39-1.77,1.02-2.46,1.87-.8.98-1.18,1.97-1.14,2.98.04,1,.4,1.8,1.09,2.39.38.33.86.56,1.42.67.57.12,1.2.1,1.91-.07.48-.11,1.65-.52,3.51-1.25,1.86-.72,3.25-1.18,4.16-1.38.91-.2,1.76-.21,2.54-.05.78.16,1.49.52,2.13,1.07,1.12.96,1.72,2.23,1.81,3.8.09,1.57-.42,3.04-1.53,4.4-.69.85-1.63,1.57-2.81,2.17-.55.28-.9.5-1.05.68-.17.2-.24.42-.23.65.01.23.17.54.46.93l-.35.44Z"/>
    <path class="cls-6" d="M340.76,267.76c-.33.34-.73.5-1.18.49-.46,0-.84-.18-1.16-.52-.32-.34-.48-.74-.48-1.21,0-.47.17-.87.5-1.2.33-.33.72-.49,1.18-.49.46,0,.85.17,1.17.51.33.34.49.75.48,1.22,0,.47-.18.86-.5,1.2"/>
  </g>
  <path class="cls-5" d="M119,364h237v38c0,20.97-17.03,38-38,38H119c-20.97,0-38-17.03-38-38h0c0-20.97,17.03-38,38-38Z"/>
  <text class="cls-8" transform="translate(104.44 413)"><tspan x="0" y="0">Contáctenos:</tspan></text>
</svg>