<?xml version="1.0" encoding="UTF-8"?>
<svg id="CJI" xmlns="http://www.w3.org/2000/svg" viewBox="0 0 436.51 420.99">
  <defs>
    <style>
      .cls-1 {
        fill: #558b4b;
        fill-rule: evenodd;
      }

      .cls-1, .cls-2 {
        stroke-width: 0px;
      }

      .cls-2 {
        fill: #518448;
      }
    </style>
  </defs>
  <path class="cls-1" d="M107.77,300.41c-38.02-49.89-19.57-127.87,41.06-173.58,60.63-45.71,141.1-42.3,179.11,7.6,38.02,49.89,19.57,127.86-41.06,173.57-60.63,45.71-141.1,42.3-179.11-7.59M107.68,300.48c34.09,44.74,111.33,43.97,171.94-1.73,60.61-45.69,82.24-119.45,48.15-164.19-34.09-44.74-111.33-43.97-171.94,1.73-60.61,45.69-82.24,119.45-48.15,164.19M107.81,300.37c21.54,28.26,88.51,14.07,149.08-31.59,60.57-45.66,92.41-105.96,70.87-134.22-21.54-28.27-88.51-14.07-149.08,31.59-60.57,45.66-92.41,105.96-70.88,134.23M107.81,300.37c16.54,21.71,79.44,2.17,140.01-43.5,60.57-45.66,96.49-100.61,79.95-122.32-16.54-21.71-79.43-2.17-140.01,43.49-60.58,45.66-96.49,100.62-79.95,122.32M110.15,303.44c.69.91,1.97,1.1,2.84.44l216.42-163.15c.88-.66,1.03-1.94.34-2.84l-4.68-6.14c-.69-.9-1.97-1.1-2.84-.44l-216.42,163.15c-.88.66-1.03,1.94-.34,2.84l4.68,6.14ZM132.79,106.74c-60.79,45.82-72.07,133.45-25.12,195.07,46.95,61.61,134.82,74.5,195.6,28.67,60.78-45.82,72.07-133.45,25.12-195.06-46.95-61.61-134.82-74.5-195.6-28.67M132.8,106.76c-49.26,37.14-51.11,117.73-4.11,179.41,47,61.68,125.51,81.7,174.77,44.56,49.26-37.14,51.11-117.73,4.11-179.42-47-61.68-125.51-81.7-174.77-44.56M132.73,106.67c-44.18,33.3-41.89,110.75,5.09,172.41,46.98,61.66,121.33,84.78,165.51,51.48,44.18-33.3,41.89-110.75-5.09-172.41-46.98-61.66-121.33-84.78-165.51-51.48M132.84,106.81c-27.91,21.04-12.37,88.46,34.58,150.07,46.95,61.62,108.01,94.72,135.92,73.68,27.91-21.04,12.38-88.45-34.58-150.07-46.95-61.62-108.01-94.72-135.92-73.68M132.84,106.81c-21.43,16.16-.62,79.6,46.33,141.21,46.95,61.62,102.73,98.7,124.16,82.54,21.43-16.16.62-79.59-46.33-141.21-46.95-61.62-102.73-98.7-124.16-82.54M129.8,109.09c-.89.67-1.06,1.95-.39,2.84l167.75,220.15c.68.89,1.96,1.07,2.85.4l6.07-4.57c.89-.67,1.06-1.95.39-2.84L138.72,104.92c-.68-.89-1.96-1.07-2.85-.4l-6.07,4.57Z"/>
  <path class="cls-2" d="M90.06,336.59l5.49-6.39.39.41c-1.24,2.33-1.76,4.39-1.57,6.18.19,1.79.97,3.39,2.32,4.8,1.14,1.18,2.45,1.95,3.95,2.31,1.5.36,3.15.17,4.95-.59,1.8-.75,3.65-2.09,5.55-4.02,1.57-1.59,2.67-3.23,3.33-4.91.65-1.68.79-3.35.4-5.01-.39-1.66-1.22-3.15-2.5-4.48-1.11-1.15-2.33-1.93-3.66-2.32-1.33-.39-3.22-.39-5.67,0l-.14-.67c2.4-.67,4.53-.78,6.39-.31,1.86.46,3.57,1.51,5.15,3.14,2.84,2.95,3.97,6.31,3.4,10.09-.42,2.81-1.7,5.31-3.85,7.49-1.73,1.75-3.7,2.97-5.91,3.64-2.21.67-4.39.72-6.52.13-2.14-.59-4-1.7-5.59-3.36-1.24-1.29-2.15-2.86-2.74-4.74-.17-.56-.32-.91-.48-1.07-.23-.24-.51-.36-.84-.37-.45,0-.92.17-1.42.49l-.44-.46Z"/>
  <path class="cls-2" d="M83.57,324.94l7.8-5.78-3.13-4.46c-.81-1.16-1.52-1.8-2.14-1.94-.81-.19-1.8.1-2.97.88l-.39-.55,6.87-5.09.39.55c-.86.85-1.38,1.45-1.55,1.79-.21.43-.27.92-.18,1.48.09.55.44,1.25,1.03,2.1l3.13,4.45,6.51-4.82c.87-.65,1.38-1.08,1.51-1.3.13-.22.19-.47.16-.75-.03-.28-.24-.7-.63-1.26l-2.42-3.44c-.8-1.14-1.47-1.92-1.99-2.32-.52-.4-1.17-.68-1.97-.82-1.03-.17-2.39-.13-4.06.12l-.42-.6,6.18-1.92,10.97,15.63-.54.4-.5-.72c-.34-.48-.77-.85-1.29-1.11-.38-.2-.76-.25-1.15-.13-.39.12-1.07.53-2.03,1.24l-12.82,9.5c-1.25.93-1.93,1.63-2.04,2.1-.14.65.09,1.39.68,2.23l.5.72-.54.4-10.97-15.63,4.17-3.43.41.59c-.89.98-1.44,1.74-1.65,2.28-.21.54-.24,1.14-.1,1.79.13.51.56,1.26,1.26,2.27l3.91,5.56Z"/>
  <path class="cls-2" d="M72.38,311.34l-2.95-6.07,9.68-22.05-12.56,6.44c-1.34.69-2.1,1.27-2.28,1.75-.25.64-.16,1.4.26,2.28l.38.77-.59.31-3.78-7.79.59-.3.38.79c.46.94,1.06,1.47,1.81,1.58.46.06,1.3-.21,2.52-.84l18.35-9.41.29.59-10.37,23.75,13.41-6.88c1.34-.69,2.1-1.27,2.29-1.73.24-.65.16-1.41-.26-2.28l-.38-.79.59-.3,3.78,7.79-.59.31-.38-.78c-.47-.96-1.07-1.49-1.82-1.6-.46-.07-1.3.21-2.52.84l-15.14,7.77c-.42,1.03-.67,1.77-.74,2.22-.07.46-.05,1.06.06,1.81.06.37.25.88.56,1.53l-.6.3Z"/>
  <path class="cls-2" d="M53,262.75l5.37-2.02.2.67c-.92.44-1.55.83-1.89,1.19-.55.58-.89,1.22-1.02,1.92-.13.71-.05,1.55.26,2.54l1.02,3.36,17.75-5.7c1.43-.46,2.27-.9,2.53-1.33.34-.6.38-1.37.09-2.29l-.25-.83.63-.2,3.08,10.12-.63.2-.26-.84c-.31-1.01-.82-1.63-1.54-1.86-.44-.14-1.32,0-2.62.41l-17.75,5.7.87,2.87c.34,1.12.66,1.88.96,2.3.4.54.98.93,1.73,1.16.75.24,1.66.23,2.74-.03l.2.67-5.53,1.47-5.93-19.48Z"/>
  <path class="cls-2" d="M72.27,229.83l.98,6.6-10.01,10.12c.12.62.2,1.12.26,1.51.02.16.04.33.07.51.02.18.04.37.06.57l6.99-1.09c1.52-.24,2.43-.55,2.75-.95.45-.54.61-1.28.47-2.2l-.14-.97.66-.11,1.57,10.6-.66.1-.14-.93c-.15-1.05-.59-1.74-1.32-2.09-.4-.2-1.29-.19-2.67.02l-15.54,2.43c-1.51.24-2.43.55-2.75.95-.45.55-.61,1.3-.47,2.24l.14.93-.66.1-1.33-9c-.39-2.63-.49-4.59-.3-5.9.19-1.3.72-2.47,1.59-3.49.87-1.03,2-1.65,3.38-1.86,1.48-.23,2.84.06,4.07.88,1.23.82,2.23,2.23,2.99,4.25l6.15-6.18c1.41-1.41,2.32-2.58,2.72-3.5.4-.92.57-2.07.51-3.44l.66-.1ZM62.5,249.32c-.03-.23-.06-.43-.08-.6-.02-.17-.04-.31-.05-.42-.35-2.36-1.11-4.06-2.28-5.1-1.17-1.04-2.52-1.44-4.06-1.2-1.5.24-2.65.91-3.45,2.02-.8,1.11-1.08,2.47-.84,4.06.11.71.36,1.64.76,2.81l10.01-1.56Z"/>
  <path class="cls-2" d="M47.64,216.89c.06-3.25,1.3-6.04,3.74-8.37,2.44-2.33,5.46-3.47,9.04-3.4,3.7.07,6.74,1.32,9.14,3.76,2.4,2.44,3.57,5.36,3.51,8.77-.06,3.44-1.3,6.31-3.72,8.61-2.42,2.3-5.52,3.41-9.3,3.34-3.86-.07-6.99-1.48-9.39-4.23-2.08-2.39-3.09-5.21-3.03-8.48M48.95,217.26c-.04,2.23.74,4.05,2.33,5.43,1.98,1.72,4.91,2.62,8.79,2.69,3.97.07,7.04-.74,9.22-2.45,1.65-1.31,2.49-3.06,2.53-5.27.04-2.35-.82-4.3-2.57-5.86-1.75-1.56-4.55-2.38-8.39-2.45-4.16-.07-7.28.71-9.36,2.36-1.65,1.32-2.5,3.18-2.54,5.56"/>
  <path class="cls-2" d="M51.93,186.93l-.65-.14,2.21-10.47.65.14-.19.88c-.21,1-.08,1.79.4,2.37.31.37,1.19.72,2.61,1.03l11.63,2.59c1.79.4,3.2.92,4.22,1.57,1.03.65,1.85,1.56,2.46,2.73.62,1.17.78,2.45.49,3.84-.24,1.13-.7,1.96-1.38,2.49-.68.53-1.37.71-2.07.56-.57-.13-.98-.38-1.2-.74-.28-.48-.36-.98-.25-1.51.08-.39.28-.7.59-.96.31-.25,1.05-.49,2.21-.72.69-.14,1.08-.42,1.17-.85.07-.33-.06-.67-.39-1.04-.33-.37-.98-.66-1.96-.88l-16.25-3.61c-1.2-.27-2.02-.37-2.43-.3-.32.05-.62.25-.91.59-.39.46-.64.97-.77,1.55l-.18.88Z"/>
  <path class="cls-2" d="M60.4,156.86l-.62-.23,2.93-8.32.62.23-.31.89c-.33.92-.2,1.77.38,2.55.26.37,1.03.8,2.3,1.27l9.28,3.45c2.3.85,4,1.75,5.1,2.69,1.1.94,1.86,2.26,2.29,3.97.42,1.71.22,3.74-.61,6.1-.9,2.57-2.02,4.35-3.36,5.36-1.33,1.01-2.83,1.52-4.49,1.53-1.13,0-3.08-.52-5.83-1.54l-8.95-3.32c-1.4-.52-2.4-.66-2.98-.43-.58.23-1.02.8-1.34,1.69l-.31.88-.62-.23,3.58-10.16.63.23-.32.9c-.34.97-.29,1.78.16,2.41.3.44,1.1.9,2.38,1.37l9.98,3.71c.89.33,1.94.62,3.14.88,1.21.26,2.21.29,3,.09.8-.2,1.55-.64,2.25-1.31.71-.67,1.27-1.61,1.7-2.81.54-1.54.7-3.03.47-4.49-.23-1.46-.77-2.6-1.63-3.42-.86-.82-2.51-1.69-4.94-2.59l-9.27-3.44c-1.43-.53-2.38-.7-2.85-.51-.65.27-1.14.84-1.45,1.73l-.31.88Z"/>
  <path class="cls-2" d="M97.6,135.14l-3.19,5.81-13.96,1.63c-.28.56-.51,1.01-.7,1.35-.07.14-.16.29-.25.45-.09.16-.19.32-.3.48l6.16,3.57c1.33.77,2.25,1.1,2.73.99.68-.14,1.25-.62,1.69-1.43l.47-.85.58.34-5.12,9.33-.58-.34.45-.82c.51-.92.58-1.75.21-2.48-.2-.41-.9-.97-2.11-1.67l-13.69-7.94c-1.33-.78-2.24-1.1-2.73-.99-.69.15-1.26.64-1.71,1.46l-.45.82-.58-.34,4.36-7.93c1.27-2.31,2.37-3.92,3.3-4.83.93-.91,2.05-1.49,3.35-1.74,1.3-.26,2.56-.03,3.78.68,1.3.75,2.19,1.85,2.67,3.28.48,1.43.41,3.17-.2,5.23l8.55-.97c1.96-.22,3.37-.57,4.24-1.04.86-.47,1.69-1.27,2.46-2.39l.58.34ZM78.22,144.29c.11-.2.21-.38.3-.52.09-.15.16-.27.21-.37,1.14-2.08,1.56-3.9,1.27-5.46-.3-1.56-1.12-2.74-2.48-3.52-1.32-.77-2.63-.97-3.93-.59-1.3.37-2.33,1.26-3.1,2.66-.34.62-.7,1.52-1.09,2.69l8.82,5.11Z"/>
  <path class="cls-2" d="M77.37,108.24l1.86,8.15-.36.51-3.87-5.33,2.38-3.33ZM103.54,126.46l.54.4-6.17,8.63-.54-.4.51-.71c.59-.83.79-1.61.59-2.35-.14-.47-.8-1.15-1.97-2.04l-12.67-9.56c-.99-.75-1.7-1.18-2.11-1.29-.31-.08-.66-.04-1.06.14-.54.26-.99.63-1.32,1.1l-.51.71-.53-.4,6.17-8.63.54.4-.52.73c-.59.82-.78,1.6-.58,2.33.13.48.79,1.17,1.96,2.06l12.67,9.56c.99.75,1.7,1.18,2.11,1.29.31.08.67.03,1.07-.15.53-.25.97-.61,1.31-1.09l.52-.73Z"/>
  <path class="cls-2" d="M104.22,125.94l-.48-.47.63-.68c.71-.77.98-1.54.8-2.33-.11-.48-.66-1.2-1.65-2.18l-11.39-11.13c-1.1-1.08-1.91-1.63-2.41-1.65-.7-.03-1.37.3-2.01.99l-.63.68-.48-.47,6.83-7.37c2.51-2.71,4.72-4.47,6.62-5.3,1.9-.83,3.95-.99,6.15-.48,2.19.51,4.2,1.65,6.03,3.44,2.45,2.4,3.79,5.17,4.02,8.31.24,3.52-1.26,7.03-4.52,10.55l-7.5,8.09ZM107.73,119.52c1.29-.89,2.29-1.72,3-2.49,1.91-2.06,2.79-4.47,2.64-7.22-.15-2.74-1.44-5.3-3.85-7.66-2.43-2.38-4.99-3.58-7.65-3.59-2.67-.01-4.99,1.05-6.97,3.19-.74.8-1.46,1.84-2.16,3.11l14.99,14.66Z"/>
  <path class="cls-2" d="M130.2,99.66l.42.53-8.09,6.76-.42-.53.67-.56c.78-.65,1.16-1.36,1.14-2.12-.02-.49-.49-1.32-1.41-2.48l-9.92-12.53c-.78-.98-1.35-1.58-1.72-1.79-.28-.16-.63-.21-1.06-.14-.59.11-1.11.35-1.55.73l-.67.56-.42-.53,8.09-6.76.42.53-.68.57c-.77.64-1.15,1.35-1.13,2.11.01.5.47,1.33,1.4,2.49l9.92,12.53c.78.98,1.35,1.58,1.72,1.8.28.16.64.2,1.07.13.58-.1,1.09-.34,1.54-.72l.68-.57Z"/>
  <path class="cls-2" d="M136,65.97l4.87,6.89-.47.31c-1.95-1.75-3.79-2.72-5.54-2.92-1.74-.19-3.43.23-5.06,1.29-1.37.88-2.39,2.04-3.06,3.46-.67,1.43-.84,3.13-.52,5.1.32,1.97,1.19,4.12,2.61,6.44,1.17,1.91,2.48,3.38,3.94,4.4,1.46,1.02,3.02,1.52,4.68,1.49,1.66-.03,3.26-.54,4.8-1.53,1.34-.86,2.34-1.92,3-3.17.66-1.25,1.07-3.14,1.23-5.68h.66c.12,2.56-.24,4.72-1.09,6.48-.84,1.76-2.21,3.26-4.11,4.48-3.41,2.21-6.85,2.61-10.32,1.22-2.58-1.03-4.68-2.86-6.28-5.48-1.29-2.11-2.02-4.35-2.18-6.72-.16-2.36.27-4.55,1.29-6.57,1.02-2.02,2.49-3.64,4.4-4.88,1.49-.96,3.19-1.53,5.09-1.72.57-.05.94-.13,1.12-.25.27-.18.45-.43.53-.76.09-.45.04-.96-.15-1.53l.53-.34Z"/>
  <path class="cls-2" d="M153.25,57.8c2.92-1.24,5.91-1.18,8.96.18,3.06,1.37,5.27,3.75,6.65,7.16,1.42,3.51,1.51,6.88.29,10.12-1.22,3.24-3.36,5.5-6.43,6.81-3.09,1.32-6.15,1.3-9.17-.07-3.02-1.36-5.25-3.84-6.7-7.43-1.48-3.67-1.47-7.18.03-10.53,1.3-2.91,3.42-4.99,6.36-6.24M153.44,59.17c-2.01.86-3.32,2.31-3.91,4.36-.74,2.55-.37,5.67,1.11,9.35,1.52,3.77,3.48,6.34,5.87,7.7,1.83,1.03,3.73,1.12,5.71.28,2.11-.9,3.51-2.49,4.21-4.77.69-2.28.3-5.24-1.17-8.89-1.59-3.95-3.54-6.57-5.84-7.87-1.84-1.03-3.83-1.08-5.98-.17"/>
  <path class="cls-2" d="M193.79,71.39l.14.67-10.2,2.21-.14-.67.84-.18c.98-.21,1.64-.66,1.96-1.35.2-.45.15-1.4-.15-2.87l-3.24-15.8c-.26-1.24-.5-2.04-.73-2.41-.18-.28-.47-.48-.88-.62-.58-.18-1.14-.21-1.71-.09l-.84.18-.14-.67,10.2-2.21.14.67-.86.19c-.97.21-1.62.66-1.94,1.34-.21.45-.17,1.4.13,2.87l3.24,15.8c.25,1.24.5,2.04.73,2.4.18.28.48.48.9.62.56.18,1.13.21,1.69.09l.86-.19Z"/>
  <path class="cls-2" d="M191.53,46.64l6.58-.55,16.3,17.46-1.13-14.37c-.12-1.53-.36-2.47-.72-2.83-.48-.48-1.2-.68-2.16-.6l-.84.07-.05-.68,8.44-.7.05.68-.86.07c-1.02.09-1.73.47-2.11,1.14-.23.41-.29,1.32-.18,2.71l1.65,21.01-.64.05-17.57-18.74,1.2,15.35c.12,1.53.36,2.47.71,2.83.49.48,1.21.68,2.15.6l.86-.07.05.68-8.44.7-.05-.68.84-.07c1.04-.08,1.75-.46,2.12-1.14.23-.42.29-1.32.18-2.72l-1.36-17.33c-.77-.79-1.35-1.3-1.73-1.54-.38-.24-.94-.45-1.66-.62-.35-.08-.88-.09-1.58-.03l-.05-.68Z"/>
  <path class="cls-2" d="M242.66,46.35l-.19,5.87-.68-.06c-.05-1.04-.17-1.79-.36-2.25-.31-.74-.76-1.31-1.35-1.69-.59-.39-1.38-.63-2.38-.71l-3.42-.29-1.51,19.04c-.12,1.53-.04,2.5.25,2.91.41.55,1.09.87,2.03.95l.84.07-.05.68-10.29-.86.06-.68.86.07c1.03.09,1.78-.17,2.26-.77.29-.37.5-1.25.61-2.65l1.51-19.04-2.92-.24c-1.13-.1-1.94-.08-2.44.05-.64.18-1.2.59-1.7,1.21-.49.62-.83,1.49-1,2.62l-.68-.06.75-5.82,19.8,1.66Z"/>
  <path class="cls-2" d="M253.72,50.01l-2.19,9.63,5.21,1.25c1.35.32,2.3.33,2.85.02.73-.4,1.29-1.29,1.67-2.66l.65.15-1.93,8.48-.65-.15c.11-1.23.12-2.02.03-2.4-.11-.47-.38-.88-.81-1.23-.42-.35-1.13-.65-2.12-.89l-5.21-1.25-1.82,8.03c-.24,1.08-.35,1.74-.31,2,.04.26.16.48.36.68.2.19.63.37,1.28.52l4.02.96c1.34.32,2.34.46,2.99.41.65-.05,1.32-.28,2-.71.89-.57,1.88-1.51,2.98-2.82l.7.17-3.43,5.61-18.26-4.38.15-.66.84.2c.56.13,1.12.12,1.68-.03.42-.1.74-.33.96-.68.22-.35.47-1.12.74-2.31l3.6-15.82c.35-1.54.42-2.53.19-2.96-.31-.58-.96-.99-1.93-1.22l-.84-.2.15-.66,18.26,4.38-.95,5.4-.68-.16c.05-1.34-.03-2.29-.21-2.83-.19-.55-.55-1.02-1.07-1.41-.42-.29-1.23-.58-2.4-.86l-6.5-1.56Z"/>
  <path class="cls-2" d="M285.07,85.67l-6.03-2.49-3.38-14.01c-.57-.21-1.04-.39-1.39-.54-.15-.06-.3-.13-.46-.2-.16-.07-.33-.15-.5-.24l-2.65,6.74c-.57,1.46-.77,2.43-.6,2.91.22.68.76,1.19,1.6,1.54l.88.36-.25.63-9.67-4.01.25-.63.85.35c.95.4,1.76.36,2.42-.11.37-.26.82-1.05,1.34-2.37l5.88-14.98c.57-1.46.77-2.43.6-2.91-.24-.68-.78-1.2-1.63-1.55l-.85-.35.25-.63,8.22,3.41c2.4.99,4.09,1.9,5.09,2.73,1,.83,1.7,1.89,2.12,3.18.42,1.29.36,2.6-.16,3.94-.56,1.42-1.5,2.48-2.81,3.15-1.32.67-3.01.83-5.08.48l2.05,8.58c.47,1.97.98,3.36,1.55,4.18.57.82,1.44,1.55,2.62,2.2l-.25.63ZM273.72,67.11c.21.09.39.17.55.24.15.07.28.13.38.17,2.15.89,3.96,1.09,5.43.58,1.47-.5,2.49-1.5,3.08-2.98.57-1.45.59-2.81.06-4.08-.53-1.27-1.52-2.21-2.97-2.81-.64-.27-1.56-.52-2.74-.76l-3.79,9.65Z"/>
  <path class="cls-2" d="M296.24,63.44l5.63,3.55,3.15,23.98,7.33-12.3c.78-1.31,1.13-2.22,1.03-2.72-.11-.68-.58-1.27-1.4-1.79l-.72-.45.35-.58,7.22,4.55-.35.58-.73-.46c-.88-.55-1.66-.67-2.35-.36-.43.19-.99.89-1.71,2.08l-10.72,17.97-.55-.34-3.44-25.78-7.83,13.13c-.78,1.31-1.13,2.22-1.05,2.71.13.68.59,1.28,1.4,1.79l.74.46-.35.58-7.22-4.55.34-.58.72.45c.89.56,1.68.68,2.37.37.42-.19.99-.89,1.7-2.08l8.84-14.83c-.17-1.1-.34-1.87-.52-2.29-.17-.43-.5-.93-.98-1.51-.24-.28-.66-.61-1.26-.99l.35-.58Z"/>
  <path class="cls-2" d="M323.77,103.82l-7.06-6.41-3.78,1.83c-.93.45-1.55.86-1.86,1.21-.24.29-.33.66-.25,1.11.08.46.53,1.11,1.35,1.98l-.44.51-5.74-5.21.44-.51c.88.55,1.53.82,1.94.81.84-.03,2.12-.47,3.84-1.32l19.67-9.6.47.43-7.05,21.35c-.57,1.72-.8,2.95-.71,3.7.1.75.5,1.49,1.2,2.21l-.44.51-7.2-6.53.44-.51c.76.62,1.36.94,1.79.96.44.02.79-.12,1.05-.42.35-.41.72-1.21,1.11-2.41l1.21-3.7ZM324.28,102.45l3.41-10.38-9.69,4.69,6.27,5.69Z"/>
  <path class="cls-2" d="M358.2,117.65l-6.09,5.79-.35-.44c1.46-2.19,2.18-4.19,2.17-5.99-.02-1.8-.63-3.47-1.84-5.01-1.01-1.29-2.25-2.19-3.71-2.71-1.46-.51-3.12-.49-4.98.07-1.87.56-3.84,1.7-5.91,3.42-1.71,1.42-2.97,2.93-3.79,4.54-.81,1.61-1.11,3.26-.89,4.94.22,1.69.9,3.26,2.05,4.71.99,1.26,2.13,2.16,3.42,2.69,1.29.53,3.16.72,5.64.58l.07.68c-2.45.42-4.58.31-6.39-.34-1.8-.65-3.41-1.87-4.82-3.66-2.53-3.22-3.33-6.68-2.4-10.39.7-2.76,2.21-5.11,4.56-7.05,1.89-1.57,3.97-2.58,6.23-3.02,2.27-.44,4.43-.26,6.5.54,2.07.8,3.82,2.11,5.24,3.92,1.11,1.41,1.86,3.07,2.27,4.99.11.57.23.95.37,1.12.2.26.47.41.8.45.45.04.93-.07,1.46-.34l.39.5Z"/>
  <path class="cls-2" d="M346.19,144.78l-.56.36-5.52-9.09.56-.36.45.75c.53.88,1.17,1.35,1.91,1.43.48.04,1.33-.33,2.57-1.13l13.34-8.55c1.04-.67,1.69-1.18,1.95-1.53.19-.27.28-.62.27-1.06-.04-.61-.2-1.17-.51-1.67l-.46-.75.56-.36,5.52,9.09-.56.36-.47-.77c-.53-.86-1.16-1.34-1.9-1.41-.48-.05-1.34.32-2.58,1.11l-13.34,8.55c-1.05.67-1.69,1.18-1.95,1.53-.19.27-.28.63-.26,1.07.03.61.19,1.16.5,1.66l.47.77Z"/>
  <path class="cls-2" d="M374.37,146.89c1.32,2.95,1.37,6.02.15,9.21-1.22,3.19-3.45,5.55-6.72,7.09-3.36,1.58-6.64,1.81-9.83.68-3.19-1.13-5.48-3.25-6.86-6.34-1.4-3.13-1.49-6.27-.27-9.42,1.21-3.15,3.54-5.53,6.98-7.15,3.51-1.66,6.93-1.78,10.24-.37,2.88,1.23,4.98,3.33,6.31,6.3M373.04,147.13c-.91-2.03-2.37-3.32-4.39-3.85-2.51-.67-5.53-.17-9.05,1.49-3.61,1.7-6.04,3.8-7.27,6.31-.94,1.92-.96,3.87-.06,5.87.96,2.13,2.55,3.51,4.79,4.14,2.24.63,5.11.12,8.6-1.53,3.78-1.78,6.26-3.88,7.44-6.29.93-1.92.91-3.97-.06-6.14"/>
  <path class="cls-2" d="M380.27,161.96l1.68,6.56-13.86,19.56,13.57-3.68c1.45-.39,2.31-.8,2.58-1.23.37-.57.44-1.33.19-2.28l-.21-.84.64-.17,2.16,8.42-.64.17-.22-.85c-.26-1.02-.75-1.67-1.46-1.93-.44-.16-1.32-.06-2.63.29l-19.84,5.37-.16-.64,14.86-21.07-14.49,3.92c-1.45.39-2.31.8-2.58,1.21-.37.58-.43,1.35-.19,2.28l.22.86-.64.17-2.16-8.42.64-.17.22.84c.27,1.04.75,1.69,1.47,1.95.44.16,1.31.07,2.63-.29l16.37-4.43c.62-.92,1.01-1.59,1.17-2.02.16-.43.26-1.03.3-1.79.02-.37-.07-.91-.25-1.61l.64-.17Z"/>
  <path class="cls-2" d="M373,210.69l-.79-9.65-3.97-1.36c-.98-.33-1.7-.48-2.16-.44-.37.03-.68.24-.93.63-.25.39-.37,1.18-.35,2.39l-.66.06-.65-7.85.66-.06c.26,1.02.55,1.68.86,1.96.62.58,1.84,1.17,3.66,1.77l20.68,7.04.05.64-19.46,10.42c-1.56.84-2.56,1.56-3,2.18-.44.61-.64,1.43-.62,2.45l-.66.06-.8-9.83.66-.06c.13.99.34,1.64.65,1.97.3.32.65.47,1.05.43.52-.04,1.33-.36,2.42-.95l3.37-1.81ZM374.27,210.06l9.45-5.08-10.16-3.49.7,8.56Z"/>
  <path class="cls-2" d="M370.6,242.51l-.17.6-6.42-2.66,1.46-19.3.66.05-.07.94c-.08,1.05.2,1.83.83,2.34.36.29,1.24.49,2.62.6l15.66,1.26c1.51.12,2.48.02,2.88-.29.56-.44.88-1.13.95-2.07l.07-.94.66.05-.86,11.29-.66-.05c.11-1.32.07-2.26-.15-2.81-.21-.55-.5-.94-.87-1.17-.37-.23-1.27-.4-2.72-.51l-15.25-1.22c-.99-.08-1.68-.04-2.06.13-.26.13-.46.34-.61.64-.14.3-.27,1.25-.4,2.85l-.14,1.82c-.15,1.91-.11,3.27.11,4.06.22.79.65,1.54,1.3,2.23.65.7,1.7,1.42,3.16,2.18"/>
  <path class="cls-2" d="M382,273.66l-8.11-2.31.18-.66c1.61.23,2.96.2,4.03-.09,1.07-.29,2.02-.86,2.83-1.73.82-.86,1.37-1.84,1.67-2.93.33-1.23.24-2.35-.27-3.37-.51-1.02-1.24-1.66-2.17-1.92-.72-.2-1.44-.13-2.16.21-1.06.49-2.69,1.9-4.87,4.26-1.78,1.92-3.1,3.19-3.95,3.84-.85.64-1.76,1.07-2.74,1.27-.97.2-1.93.17-2.86-.1-1.78-.5-3.12-1.65-4.02-3.43-.9-1.78-1.05-3.79-.45-6.01.19-.7.42-1.34.69-1.93.16-.35.57-1.05,1.25-2.1.68-1.05,1.05-1.73,1.14-2.04.08-.3.06-.55-.07-.78-.13-.22-.45-.45-.97-.69l.18-.66,8.04,2.29-.18.66c-1.77-.17-3.14-.12-4.11.16-.98.28-1.88.88-2.73,1.8-.84.91-1.44,2.01-1.78,3.29-.4,1.48-.34,2.76.19,3.83.53,1.08,1.31,1.76,2.35,2.06.58.16,1.2.17,1.88,0,.67-.16,1.36-.51,2.05-1.05.47-.36,1.55-1.41,3.23-3.16,1.68-1.74,2.97-2.95,3.88-3.63.9-.68,1.82-1.13,2.75-1.35.93-.22,1.88-.19,2.85.09,1.68.48,2.95,1.56,3.81,3.23.86,1.67,1.01,3.54.46,5.58-.34,1.28-1.01,2.55-2.01,3.81-.47.58-.74,1.01-.81,1.28-.08.31-.06.59.07.83.13.25.44.51.95.78l-.18.66Z"/>
  <path class="cls-2" d="M358.59,275.39c-.2.54-.55.92-1.05,1.14-.5.22-1.01.24-1.52.03-.51-.2-.88-.56-1.11-1.08-.22-.52-.24-1.04-.04-1.56.2-.53.55-.91,1.05-1.14.5-.23,1.01-.24,1.53-.04.52.21.9.57,1.11,1.08.22.51.23,1.04.03,1.56"/>
  <path class="cls-2" d="M353.81,297.28l4.39-8.57-2.63-3.34c-.65-.82-1.18-1.34-1.59-1.57-.33-.18-.7-.17-1.11.01-.41.19-.93.79-1.55,1.82l-.59-.32,3.57-6.97.59.32c-.31,1.01-.41,1.72-.3,2.13.22.83.94,2,2.15,3.52l13.74,17.36-.29.57-21.86-1.98c-1.76-.16-2.98-.1-3.67.18-.69.27-1.29.85-1.8,1.72l-.59-.32,4.47-8.73.59.32c-.41.9-.57,1.58-.49,2.02.08.44.3.76.65.95.47.25,1.31.43,2.54.54l3.78.33ZM355.22,297.46l10.63.95-6.73-8.55-3.89,7.6Z"/>
  <path class="cls-2" d="M342.28,307.25c-.32.48-.75.76-1.28.86-.54.1-1.03-.01-1.49-.33-.45-.32-.73-.76-.83-1.31-.1-.56,0-1.07.32-1.53.31-.47.74-.75,1.28-.86.54-.1,1.04,0,1.49.32.46.33.74.77.84,1.32.1.55-.01,1.06-.32,1.53"/>
  <path class="cls-2" d="M345.65,338.5l-6.45-5.55.43-.52c1.38.9,2.61,1.44,3.7,1.63,1.09.19,2.18.07,3.27-.37,1.09-.44,1.99-1.09,2.7-1.96.8-.98,1.17-2.04,1.11-3.18-.06-1.14-.46-2.03-1.2-2.67-.57-.49-1.25-.73-2.05-.73-1.17,0-3.21.59-6.15,1.8-2.4.98-4.11,1.59-5.14,1.81-1.03.23-2.03.22-3,0-.97-.23-1.82-.67-2.56-1.31-1.41-1.21-2.17-2.83-2.27-4.83-.1-2.01.57-3.9,2.01-5.67.45-.56.92-1.04,1.4-1.46.28-.25.94-.72,1.98-1.38,1.04-.67,1.66-1.13,1.86-1.37.19-.24.28-.48.25-.74-.03-.26-.23-.6-.6-1.04l.43-.52,6.4,5.51-.43.52c-1.54-.91-2.81-1.44-3.81-1.6-1-.16-2.07,0-3.21.47-1.14.47-2.12,1.22-2.95,2.24-.96,1.18-1.42,2.37-1.37,3.57.05,1.2.49,2.16,1.31,2.87.46.4,1.03.67,1.71.81.68.14,1.44.11,2.29-.09.57-.13,1.98-.63,4.21-1.5,2.23-.87,3.9-1.42,4.99-1.65,1.1-.24,2.11-.26,3.05-.06.93.19,1.79.62,2.56,1.29,1.34,1.15,2.06,2.67,2.17,4.56.11,1.89-.51,3.64-1.83,5.28-.83,1.02-1.95,1.89-3.37,2.61-.66.33-1.08.6-1.26.82-.2.24-.29.51-.28.78.02.28.2.65.55,1.11l-.43.52Z"/>
  <path class="cls-2" d="M323.61,330.13c-.4.4-.88.6-1.42.59-.55-.01-1.01-.22-1.4-.62-.39-.4-.58-.89-.57-1.45,0-.57.2-1.05.6-1.44.39-.4.86-.59,1.41-.59.55,0,1.02.21,1.4.61.39.41.59.9.58,1.46,0,.56-.21,1.04-.6,1.43"/>
</svg>